<svg width="48" height="48" viewBox="0 0 48 48" fill="none" xmlns="http://www.w3.org/2000/svg">
<path d="M30.3468 16.51L20.3368 26.5434L16.4868 22.6934C16.2776 22.4491 16.0202 22.2507 15.7307 22.1107C15.4412 21.9706 15.1259 21.8919 14.8045 21.8795C14.4832 21.8671 14.1628 21.9212 13.8633 22.0385C13.5639 22.1558 13.292 22.3338 13.0646 22.5612C12.8372 22.7886 12.6592 23.0605 12.5419 23.3599C12.4246 23.6594 12.3705 23.9798 12.3829 24.3011C12.3953 24.6225 12.474 24.9378 12.6141 25.2273C12.7541 25.5168 12.9525 25.7742 13.1968 25.9834L18.6801 31.49C18.8981 31.7063 19.1567 31.8774 19.441 31.9935C19.7253 32.1096 20.0297 32.1685 20.3368 32.1667C20.9489 32.1641 21.5355 31.9211 21.9701 31.49L33.6368 19.8234C33.8555 19.6064 34.029 19.3484 34.1475 19.064C34.266 18.7797 34.327 18.4747 34.327 18.1667C34.327 17.8587 34.266 17.5537 34.1475 17.2693C34.029 16.985 33.8555 16.7269 33.6368 16.51C33.1996 16.0754 32.6082 15.8315 31.9918 15.8315C31.3753 15.8315 30.7839 16.0754 30.3468 16.51ZM24.0001 0.666687C19.3852 0.666687 14.8739 2.03516 11.0368 4.59906C7.19964 7.16296 4.20895 10.8071 2.4429 15.0707C0.676858 19.3343 0.21478 24.0259 1.1151 28.5521C2.01542 33.0784 4.23771 37.236 7.50093 40.4992C10.7642 43.7624 14.9218 45.9847 19.448 46.885C23.9742 47.7853 28.6658 47.3233 32.9294 45.5572C37.193 43.7912 40.8371 40.8005 43.401 36.9633C45.9649 33.1262 47.3334 28.6149 47.3334 24C47.3334 20.9358 46.7299 17.9017 45.5573 15.0707C44.3847 12.2398 42.6659 9.66756 40.4992 7.50086C38.3325 5.33416 35.7603 3.61544 32.9294 2.44283C30.0984 1.27022 27.0643 0.666687 24.0001 0.666687ZM24.0001 42.6667C20.3082 42.6667 16.6992 41.5719 13.6294 39.5208C10.5597 37.4697 8.16718 34.5543 6.75434 31.1434C5.34151 27.7326 4.97184 23.9793 5.6921 20.3583C6.41236 16.7374 8.19018 13.4113 10.8008 10.8007C13.4113 8.19011 16.7374 6.41229 20.3584 5.69203C23.9794 4.97177 27.7326 5.34143 31.1435 6.75427C34.5544 8.16711 37.4697 10.5597 39.5209 13.6294C41.572 16.6991 42.6668 20.3081 42.6668 24C42.6668 28.9507 40.7001 33.6987 37.1994 37.1993C33.6987 40.7 28.9508 42.6667 24.0001 42.6667Z" fill="#308E45"/>
</svg>
