<svg width="80" height="80" viewBox="0 0 80 80" fill="none" xmlns="http://www.w3.org/2000/svg">
<path d="M7 60.544V26.5406C7.03315 26.4703 7.05948 26.3973 7.07867 26.3223C7.44789 23.8454 9.69496 21.9767 12.73 22.0025C18.6807 22.0552 24.6314 22.0257 30.5822 22.0025C30.8637 21.9876 31.1447 22.0401 31.4003 22.1551C31.6559 22.2702 31.8782 22.4443 32.0476 22.6621C33.3317 24.1753 34.6589 25.654 35.9442 27.1659C36.0658 27.3261 36.2272 27.454 36.4134 27.538C36.5997 27.622 36.8048 27.6594 37.01 27.6466C44.4384 27.6319 51.8669 27.6319 59.2954 27.6466C59.9059 27.6352 60.5152 27.7024 61.1073 27.8465C63.565 28.5049 64.9937 30.4215 64.9962 32.9965C65.0013 39.3972 65.0013 45.7979 64.9962 52.1986C64.9962 54.664 64.9962 57.1303 64.9962 59.5974C64.9886 62.8284 62.8062 64.9571 59.4578 64.9926C57.7069 65.0086 55.9546 64.9926 54.2037 64.9926C40.4015 64.9926 26.6002 64.9951 12.7998 65C11.267 65 9.88148 64.6837 8.71544 63.6647C7.75114 62.8223 7.28041 61.7347 7 60.544Z" fill="#F1CF04"/>
<path d="M67.4843 59V58.1862C67.4843 49.7803 67.4843 41.374 67.4843 32.9673C67.4843 29.1937 65.2131 26.2579 61.668 25.4491C61.0174 25.3126 60.3538 25.2481 59.6892 25.2566C52.7458 25.2424 45.8016 25.2424 38.8565 25.2566C38.6037 25.2725 38.3512 25.223 38.1227 25.1129C37.8943 25.0028 37.6977 24.8358 37.5515 24.6277C36.5627 23.3887 35.5015 22.2088 34.5215 20.9635C33.6915 19.9094 32.6552 19.4641 31.3302 19.4717C26.1326 19.4969 20.9338 19.4818 15.7363 19.4818H15C15.1088 17.3434 17.165 15.2767 19.3363 15.0704C19.7301 15.0327 20.1251 15.0151 20.5201 15.0151C26.3614 15.0151 32.2039 15.0151 38.0465 15C38.734 15 39.2065 15.2101 39.6415 15.7547C40.854 17.2642 42.134 18.727 43.3553 20.234C43.4863 20.416 43.6608 20.5619 43.8627 20.658C44.0646 20.7541 44.2874 20.7973 44.5103 20.7837C51.8067 20.7673 59.1042 20.7837 66.4018 20.7673C68.2343 20.7673 69.7769 21.3447 70.9294 22.8314C71.6363 23.7488 72.0119 24.8808 71.9944 26.0415C72.0019 35.3044 72.0019 44.5677 71.9944 53.8315C71.9944 56.3824 70.3031 58.4541 67.9431 58.9497C67.8168 58.9811 67.6918 58.9811 67.4843 59Z" fill="#D8A900"/>
</svg>
