<svg width="32" height="40" viewBox="0 0 32 40" fill="none" xmlns="http://www.w3.org/2000/svg">
<path fill-rule="evenodd" clip-rule="evenodd" d="M4.68629 4.68629C7.68687 1.68571 11.7565 0 16 0C20.2435 0 24.3131 1.68571 27.3137 4.68629C30.3143 7.68687 32 11.7565 32 16C32 26.8 18 39 17.3 39.52C16.9377 39.8299 16.4767 40.0001 16 40.0001C15.5233 40.0001 15.0623 39.8299 14.7 39.52L14.6967 39.5171C14.05 38.9567 0 26.7808 0 16C0 11.7565 1.68571 7.68687 4.68629 4.68629Z" fill="#227743"/>
<path fill-rule="evenodd" clip-rule="evenodd" d="M10.0654 8.39874C10.5342 7.9299 11.1701 7.6665 11.8332 7.6665H20.1665C20.8295 7.6665 21.4654 7.9299 21.9343 8.39874C22.4031 8.86758 22.6665 9.50346 22.6665 10.1665V22.6665H23.4998C23.9601 22.6665 24.3332 23.0396 24.3332 23.4998C24.3332 23.9601 23.9601 24.3332 23.4998 24.3332H8.49984C8.0396 24.3332 7.6665 23.9601 7.6665 23.4998C7.6665 23.0396 8.0396 22.6665 8.49984 22.6665H9.33317V10.1665C9.33317 9.50346 9.59656 8.86758 10.0654 8.39874ZM10.9998 22.6665H13.4998V19.3332C13.4998 18.8911 13.6754 18.4672 13.988 18.1547C14.3006 17.8421 14.7245 17.6665 15.1665 17.6665H16.8332C17.2752 17.6665 17.6991 17.8421 18.0117 18.1547C18.3242 18.4672 18.4998 18.8911 18.4998 19.3332V22.6665H20.9998V10.1665C20.9998 9.94549 20.912 9.73353 20.7558 9.57725C20.5995 9.42097 20.3875 9.33317 20.1665 9.33317H11.8332C11.6122 9.33317 11.4002 9.42097 11.2439 9.57725C11.0876 9.73353 10.9998 9.94549 10.9998 10.1665V22.6665ZM15.1665 22.6665H16.8332V19.3332H15.1665V22.6665ZM12.6665 11.8332C12.6665 11.3729 13.0396 10.9998 13.4998 10.9998H14.3332C14.7934 10.9998 15.1665 11.3729 15.1665 11.8332C15.1665 12.2934 14.7934 12.6665 14.3332 12.6665H13.4998C13.0396 12.6665 12.6665 12.2934 12.6665 11.8332ZM16.8332 11.8332C16.8332 11.3729 17.2063 10.9998 17.6665 10.9998H18.4998C18.9601 10.9998 19.3332 11.3729 19.3332 11.8332C19.3332 12.2934 18.9601 12.6665 18.4998 12.6665H17.6665C17.2063 12.6665 16.8332 12.2934 16.8332 11.8332ZM12.6665 15.1665C12.6665 14.7063 13.0396 14.3332 13.4998 14.3332H14.3332C14.7934 14.3332 15.1665 14.7063 15.1665 15.1665C15.1665 15.6267 14.7934 15.9998 14.3332 15.9998H13.4998C13.0396 15.9998 12.6665 15.6267 12.6665 15.1665ZM16.8332 15.1665C16.8332 14.7063 17.2063 14.3332 17.6665 14.3332H18.4998C18.9601 14.3332 19.3332 14.7063 19.3332 15.1665C19.3332 15.6267 18.9601 15.9998 18.4998 15.9998H17.6665C17.2063 15.9998 16.8332 15.6267 16.8332 15.1665Z" fill="white"/>
</svg>
