<?xml version="1.0" standalone="no"?>
<!DOCTYPE svg PUBLIC "-//W3C//DTD SVG 1.1//EN" "http://www.w3.org/Graphics/SVG/1.1/DTD/svg11.dtd" >
<svg xmlns="http://www.w3.org/2000/svg">
<metadata>Generated by IcoMoon</metadata>
<defs>
<font id="icomoon" horiz-adv-x="1024">
<font-face units-per-em="1024" ascent="960" descent="-64" />
<missing-glyph horiz-adv-x="1024" />
<glyph unicode="&#x20;" horiz-adv-x="512" d="" />
<glyph unicode="&#xe900;" d="M938.667 634.474c0.205-2.699 0.205-5.408 0-8.107 0.401-2.545 0.401-5.136 0-7.68-0.179-29.784-8.149-59.002-23.121-84.751-14.972-25.747-36.416-47.131-62.212-62.022v-407.893c0-11.315-4.497-22.17-12.497-30.17-8-8.004-18.854-12.497-30.17-12.497h-597.333c-11.316 0-22.168 4.493-30.17 12.497-8.001 8-12.497 18.854-12.497 30.17v409.6c-25.547 14.746-46.837 35.857-61.792 61.282s-23.066 54.291-23.541 83.784c0.559 2.709 1.569 5.305 2.987 7.68-0.206 2.698-0.206 5.408 0 8.107l85.333 213.333c3.162 7.939 8.634 14.745 15.709 19.538s15.426 7.35 23.971 7.342h597.333c9.045 0.634 18.057-1.629 25.728-6.462s13.606-11.985 16.939-20.418l85.333-213.333zM725.333 106.688h42.667v341.333c-24.299 0.137-48.286 5.461-70.362 15.616-22.071 10.15-41.724 24.905-57.638 43.264-16.017-18.163-35.712-32.704-57.779-42.667-22.071-9.963-46.007-15.117-70.221-15.117s-48.149 5.154-70.221 15.117c-22.067 9.963-41.763 24.503-57.779 42.667-15.915-18.359-35.566-33.114-57.641-43.264-22.074-10.155-46.062-15.479-70.359-15.616v-341.333h469.333zM707.661 558.347c16.004-16.003 37.709-24.993 60.339-24.993 21.564-0.059 42.355 8.046 58.185 22.69 15.834 14.644 25.532 34.739 27.149 56.244l-71.68 177.067h-539.307l-71.68-177.067c0.42-11.206 3.043-22.22 7.72-32.412s11.315-19.364 19.536-26.991c16.603-15.403 38.645-23.579 61.277-22.73 11.206 0.418 22.22 3.042 32.412 7.719s19.363 11.315 26.991 19.536c7.627 8.221 13.559 17.864 17.46 28.378s5.691 21.693 5.271 32.899c0 11.316 4.495 22.168 12.497 30.17s18.854 12.497 30.17 12.497c11.316 0 22.168-4.495 30.17-12.497s12.497-18.854 12.497-30.17c0-22.632 8.99-44.337 24.994-60.34s37.709-24.993 60.339-24.993c22.63 0 44.335 8.99 60.339 24.993s24.994 37.708 24.994 60.34c0 11.316 4.497 22.168 12.497 30.17s18.854 12.497 30.17 12.497c11.315 0 22.17-4.495 30.17-12.497s12.497-18.854 12.497-30.17c0-22.632 8.99-44.337 24.994-60.34z" />
<glyph unicode="&#xe901;" d="M492.373 329.852h65.643c6.963 0 13.641 2.769 18.564 7.693s7.693 11.601 7.693 18.564c0 6.963-2.769 13.641-7.693 18.564-4.924 4.928-11.601 7.693-18.564 7.693h-26.257v13.129c0 6.963-2.765 13.641-7.693 18.564-4.924 4.924-11.601 7.693-18.564 7.693s-13.641-2.769-18.564-7.693c-4.924-4.924-7.693-11.601-7.693-18.564v-14.443c-15.953-3.238-30.131-12.288-39.787-25.395s-14.095-29.333-12.459-45.53c1.634-16.196 9.233-31.206 21.312-42.116s27.785-16.943 44.062-16.926h26.257c3.482 0 6.822-1.387 9.284-3.849s3.844-5.798 3.844-9.28c0-3.482-1.382-6.822-3.844-9.284s-5.803-3.844-9.284-3.844h-65.643c-6.963 0-13.641-2.769-18.564-7.693s-7.693-11.601-7.693-18.564c0-6.963 2.769-13.641 7.693-18.564 4.924-4.928 11.601-7.693 18.564-7.693h26.257v-13.129c0-6.963 2.769-13.641 7.693-18.564s11.601-7.693 18.564-7.693c6.963 0 13.641 2.769 18.564 7.693 4.928 4.924 7.693 11.601 7.693 18.564v14.443c15.953 3.238 30.131 12.288 39.787 25.395s14.097 29.333 12.459 45.53c-1.634 16.196-9.229 31.206-21.312 42.116-12.079 10.91-27.785 16.943-44.062 16.926h-26.257c-3.482 0-6.822 1.387-9.284 3.849s-3.844 5.798-3.844 9.28c0 3.482 1.382 6.822 3.844 9.284s5.803 3.844 9.284 3.844z" />
<glyph unicode="&#xe902;" d="M558.016 329.852h-65.643c-3.482 0-6.822-1.382-9.284-3.844s-3.844-5.803-3.844-9.284c0-3.482 1.382-6.818 3.844-9.28s5.803-3.849 9.284-3.849h26.257c16.277 0.017 31.983-6.016 44.062-16.926 12.083-10.91 19.678-25.92 21.312-42.116 1.638-16.196-2.803-32.422-12.459-45.53s-23.834-22.157-39.787-25.395v-14.443c0-6.963-2.765-13.641-7.693-18.564-4.924-4.924-11.601-7.693-18.564-7.693s-13.641 2.769-18.564 7.693c-4.924 4.924-7.693 11.601-7.693 18.564v13.129h-26.257c-6.963 0-13.641 2.765-18.564 7.693-4.924 4.924-7.693 11.601-7.693 18.564s2.769 13.641 7.693 18.564c4.924 4.924 11.601 7.693 18.564 7.693h65.643c3.482 0 6.822 1.382 9.284 3.844s3.844 5.803 3.844 9.284c0 3.482-1.382 6.818-3.844 9.28s-5.803 3.849-9.284 3.849h-26.257c-16.277-0.017-31.983 6.016-44.062 16.926s-19.678 25.92-21.312 42.116c-1.636 16.196 2.803 32.422 12.459 45.53s23.834 22.157 39.787 25.395v14.443c0 6.963 2.769 13.641 7.693 18.564s11.601 7.693 18.564 7.693c6.963 0 13.641-2.769 18.564-7.693 4.928-4.924 7.693-11.601 7.693-18.564v-13.129h26.257c6.963 0 13.641-2.765 18.564-7.693 4.924-4.924 7.693-11.601 7.693-18.564s-2.769-13.641-7.693-18.564c-4.924-4.924-11.601-7.693-18.564-7.693z" />
<glyph unicode="&#xe903;" glyph-name="off" d="M896 874.667h-768c-11.316 0-22.168-4.495-30.17-12.497s-12.497-18.854-12.497-30.17v-768c0-11.315 4.495-22.17 12.497-30.17s18.854-12.497 30.17-12.497h768c11.315 0 22.17 4.497 30.17 12.497s12.497 18.854 12.497 30.17v768c0 11.316-4.497 22.168-12.497 30.17s-18.854 12.497-30.17 12.497zM853.333 106.667h-682.667v682.667h682.667v-682.667z" />
<glyph unicode="&#xe904;" glyph-name="on" d="M896 874.667h-768c-25.6 0-42.667-17.067-42.667-42.667v-768c0-25.6 17.067-42.667 42.667-42.667h768c25.6 0 42.667 17.067 42.667 42.667v768c0 25.6-17.067 42.667-42.667 42.667zM755.2 563.2l-290.133-290.133c-17.067-17.067-42.667-17.067-59.733 0l-136.533 136.533c-17.067 17.067-17.067 42.667 0 59.733s42.667 17.067 59.733 0l106.667-106.667 260.267 260.267c17.067 17.067 42.667 17.067 59.733 0s17.067-42.667 0-59.733z" />
<glyph unicode="&#xe905;" glyph-name="add" d="M810.667 490.667h-256v256c0 11.316-4.497 22.168-12.497 30.17s-18.854 12.497-30.17 12.497c-11.315 0-22.17-4.495-30.17-12.497s-12.497-18.854-12.497-30.17v-256h-256c-11.316 0-22.168-4.497-30.17-12.497s-12.497-18.854-12.497-30.17c0-11.315 4.495-22.17 12.497-30.17s18.854-12.497 30.17-12.497h256v-256c0-11.315 4.497-22.17 12.497-30.17s18.854-12.497 30.17-12.497c11.315 0 22.17 4.497 30.17 12.497s12.497 18.854 12.497 30.17v256h256c11.315 0 22.17 4.497 30.17 12.497s12.497 18.854 12.497 30.17c0 11.315-4.497 22.17-12.497 30.17s-18.854 12.497-30.17 12.497z" />
<glyph unicode="&#xe906;" glyph-name="add-mail" d="M725.333 661.333h42.667v-42.667c0-11.316 4.497-22.168 12.497-30.17s18.854-12.497 30.17-12.497c11.315 0 22.17 4.495 30.17 12.497s12.497 18.854 12.497 30.17v42.667h42.667c11.315 0 22.17 4.495 30.17 12.497s12.497 18.854 12.497 30.17c0 11.316-4.497 22.168-12.497 30.17s-18.854 12.497-30.17 12.497h-42.667v42.667c0 11.316-4.497 22.168-12.497 30.17s-18.854 12.497-30.17 12.497c-11.315 0-22.17-4.495-30.17-12.497s-12.497-18.854-12.497-30.17v-42.667h-42.667c-11.315 0-22.17-4.495-30.17-12.497s-12.497-18.854-12.497-30.17c0-11.316 4.497-22.168 12.497-30.17s18.854-12.497 30.17-12.497zM896 490.667c-11.315 0-22.17-4.497-30.17-12.497s-12.497-18.854-12.497-30.17v-256c0-11.315-4.497-22.17-12.497-30.17s-18.854-12.497-30.17-12.497h-597.333c-11.316 0-22.168 4.497-30.17 12.497s-12.497 18.854-12.497 30.17v409.173l250.88-251.307c24-23.97 56.533-37.436 90.453-37.436s66.453 13.466 90.453 37.436l105.387 105.387c8.034 8.034 12.548 18.931 12.548 30.293s-4.514 22.259-12.548 30.293c-8.034 8.034-18.931 12.548-30.293 12.548s-22.259-4.514-30.293-12.548l-105.387-105.387c-7.974-7.817-18.697-12.198-29.867-12.198s-21.892 4.382-29.867 12.198l-251.307 250.88h323.84c11.315 0 22.17 4.495 30.17 12.497s12.497 18.854 12.497 30.17c0 11.316-4.497 22.168-12.497 30.17s-18.854 12.497-30.17 12.497h-341.333c-33.948 0-66.505-13.486-90.51-37.49s-37.49-56.562-37.49-90.51v-426.667c0-33.946 13.486-66.505 37.49-90.509s56.562-37.491 90.51-37.491h597.333c33.946 0 66.505 13.487 90.509 37.491s37.491 56.563 37.491 90.509v256c0 11.315-4.497 22.17-12.497 30.17s-18.854 12.497-30.17 12.497z" />
<glyph unicode="&#xe907;" glyph-name="add-circle" d="M512 874.667c-84.386 0-166.878-25.024-237.043-71.906s-124.852-113.519-157.145-191.482c-32.294-77.962-40.743-163.752-24.28-246.516s57.099-158.788 116.77-218.462c59.67-59.669 135.695-100.305 218.46-116.77 82.765-16.461 168.555-8.013 246.515 24.282 77.965 32.294 144.602 86.98 191.484 157.146s71.906 152.657 71.906 237.043c0 56.030-11.038 111.513-32.478 163.278s-52.868 98.801-92.489 138.421c-39.62 39.619-86.656 71.048-138.423 92.49-51.763 21.442-107.247 32.478-163.277 32.478v0zM512 106.667c-67.507 0-133.502 20.019-189.635 57.523-56.132 37.508-99.881 90.816-125.716 153.186s-32.594 131.004-19.424 197.214c13.17 66.213 45.679 127.033 93.416 174.769s108.556 80.245 174.769 93.416c66.21 13.17 134.844 6.411 197.214-19.424s115.678-69.584 153.186-125.716c37.504-56.132 57.523-122.123 57.523-189.635 0-90.526-35.959-177.348-99.972-241.361-64.013-64.009-150.835-99.972-241.361-99.972v0zM682.667 490.667h-128v128c0 11.316-4.497 22.168-12.497 30.17s-18.854 12.497-30.17 12.497c-11.315 0-22.17-4.495-30.17-12.497s-12.497-18.854-12.497-30.17v-128h-128c-11.316 0-22.168-4.497-30.17-12.497s-12.497-18.854-12.497-30.17c0-11.315 4.495-22.17 12.497-30.17s18.854-12.497 30.17-12.497h128v-128c0-11.315 4.497-22.17 12.497-30.17s18.854-12.497 30.17-12.497c11.315 0 22.17 4.497 30.17 12.497s12.497 18.854 12.497 30.17v128h128c11.315 0 22.17 4.497 30.17 12.497s12.497 18.854 12.497 30.17c0 11.315-4.497 22.17-12.497 30.17s-18.854 12.497-30.17 12.497z" />
<glyph unicode="&#xe908;" glyph-name="adobe" d="M925.653 326.989c-25.318 27.025-77.056 42.65-150.37 42.65-39.232 0-84.582-3.904-133.969-13.111-30.182 29.824-57.647 62.285-82.074 96.998-18.91 26.33-35.469 54.212-50.637 81.665 28.924 90.575 42.974 164.454 42.974 217.675 0 59.643-21.555 121.801-83.332 121.801-19.068 0-37.978-11.559-48.127-28.577-27.83-50.171-15.304-160.279 32.69-268.969-18.304-55.447-38.491-110.253-60.521-164.32-20.856-49.6-43.738-98.325-68.587-146.044-138.963-56.593-228.97-122.496-237.303-174.353-3.766-19.507 2.644-37.355 16.265-51.699 4.727-3.904 22.542-19.371 52.722-19.371 92.224 0 189.335 152.602 238.852 244.727 37.847 12.817 75.825 24.538 113.645 36.228 39.966 11.059 80.448 20.13 121.31 27.187 97.378-89.344 183.189-103.42 226.325-103.42 53.15 0 72.060 22.025 78.468 40.004 10.014 23.279 2.509 48.913-8.896 62.157l0.695-1.391-0.132 0.162zM876.403 289.365c-3.767-19.371-22.81-32.324-49.382-32.324-7.505 0-13.918 1.395-21.555 2.517-48.422 11.721-93.747 36.365-138.965 75.268 35.076 5.901 70.575 8.883 106.142 8.913 26.278 0 49.114-1.259 64.393-5.167 17.519-3.772 45.35-15.599 39.1-49.34h0.695l-0.427 0.132zM608.491 350.268c-35.191-7.198-70.17-15.424-104.883-24.67-30.195-8.218-60.117-17.417-89.712-27.588 15.366 30.49 29.702 61.495 42.975 92.958 15.3 36.361 27.827 73.852 40.486 108.715 12.395-21.888 26.283-43.908 40.196-63.548 22.81-31.066 46.609-60.634 70.537-86.404v0.695l0.401-0.158zM442.795 831.346c2.227 4.566 5.658 8.433 9.924 11.184s9.203 4.277 14.272 4.416c26.577 0 31.569-30.932 31.569-55.737 0-41.662-12.659-104.944-34.214-177.137-37.844 100.609-40.328 184.789-21.419 217.274h-0.132zM303.83 228.467c-64.393-108.557-126.303-175.881-164.282-175.881-7.372 0-13.782 2.65-18.776 6.421-7.639 7.812-11.404 16.858-8.894 27.187 7.639 38.878 79.697 93.222 192.113 142.298l-0.16-0.026z" />
<glyph unicode="&#xe909;" glyph-name="agency" d="M208.157 837.176c24.005 24.005 56.562 37.49 90.51 37.49h426.667c33.946 0 66.505-13.486 90.509-37.49s37.491-56.562 37.491-90.51v-640h42.667c23.565 0 42.667-19.102 42.667-42.667s-19.102-42.667-42.667-42.667h-768c-23.564 0-42.667 19.102-42.667 42.667s19.103 42.667 42.667 42.667h42.667v640c0 33.948 13.486 66.505 37.49 90.51zM256 106.667h128v170.667c0 22.63 8.99 44.335 24.994 60.339s37.709 24.994 60.34 24.994h85.333c22.63 0 44.335-8.99 60.339-24.994s24.994-37.709 24.994-60.339v-170.667h128v640c0 11.316-4.497 22.168-12.497 30.17s-18.854 12.497-30.17 12.497h-426.667c-11.316 0-22.168-4.495-30.17-12.497s-12.497-18.854-12.497-30.17v-640zM469.333 106.667h85.333v170.667h-85.333v-170.667zM341.333 661.333c0 23.564 19.103 42.667 42.667 42.667h42.667c23.565 0 42.667-19.103 42.667-42.667s-19.102-42.667-42.667-42.667h-42.667c-23.564 0-42.667 19.103-42.667 42.667zM554.667 661.333c0 23.564 19.102 42.667 42.667 42.667h42.667c23.565 0 42.667-19.103 42.667-42.667s-19.102-42.667-42.667-42.667h-42.667c-23.565 0-42.667 19.103-42.667 42.667zM341.333 490.667c0 23.565 19.103 42.667 42.667 42.667h42.667c23.565 0 42.667-19.102 42.667-42.667s-19.102-42.667-42.667-42.667h-42.667c-23.564 0-42.667 19.102-42.667 42.667zM554.667 490.667c0 23.565 19.102 42.667 42.667 42.667h42.667c23.565 0 42.667-19.102 42.667-42.667s-19.102-42.667-42.667-42.667h-42.667c-23.565 0-42.667 19.102-42.667 42.667z" />
<glyph unicode="&#xe90a;" glyph-name="alert-mail" d="M896 384c-11.315 0-22.17-4.497-30.17-12.497s-12.497-18.854-12.497-30.17v-170.667c0-11.315-4.497-22.17-12.497-30.17s-18.854-12.497-30.17-12.497h-597.333c-11.316 0-22.168 4.497-30.17 12.497s-12.497 18.854-12.497 30.17v409.173l250.88-250.88c24-23.97 56.533-37.436 90.453-37.436s66.453 13.466 90.453 37.436l153.173 152.747c8.034 8.034 12.548 18.931 12.548 30.293s-4.514 22.259-12.548 30.293c-8.034 8.034-18.931 12.548-30.293 12.548s-22.259-4.514-30.293-12.548l-152.747-153.173c-3.968-3.998-8.687-7.172-13.884-9.34-5.201-2.167-10.778-3.281-16.41-3.281s-11.209 1.114-16.41 3.281c-5.197 2.167-9.916 5.342-13.884 9.34l-250.88 250.88h494.507c11.315 0 22.17 4.495 30.17 12.497s12.497 18.854 12.497 30.17c0 11.316-4.497 22.168-12.497 30.17s-18.854 12.497-30.17 12.497h-512c-33.948 0-66.505-13.486-90.51-37.49s-37.49-56.562-37.49-90.51v-426.667c0-33.946 13.486-66.505 37.49-90.509s56.562-37.491 90.51-37.491h597.333c33.946 0 66.505 13.487 90.509 37.491s37.491 56.563 37.491 90.509v170.667c0 11.315-4.497 22.17-12.497 30.17s-18.854 12.497-30.17 12.497zM896 853.333c-11.315 0-22.17-4.495-30.17-12.497s-12.497-18.854-12.497-30.17v-170.667c0-11.316 4.497-22.168 12.497-30.17s18.854-12.497 30.17-12.497c11.315 0 22.17 4.495 30.17 12.497s12.497 18.854 12.497 30.17v170.667c0 11.316-4.497 22.168-12.497 30.17s-18.854 12.497-30.17 12.497v0zM887.467 554.667c-2.671-0.467-5.261-1.33-7.68-2.56-2.718-0.934-5.303-2.225-7.68-3.84l-6.4-5.12c-7.795-8.176-12.215-18.995-12.373-30.293-0.209-2.697-0.209-5.41 0-8.107 0.397-2.825 1.259-5.568 2.56-8.107 0.934-2.718 2.227-5.303 3.84-7.68 1.574-2.236 3.285-4.373 5.12-6.4 3.968-3.998 8.687-7.172 13.884-9.34 5.201-2.167 10.778-3.281 16.41-3.281s11.209 1.114 16.41 3.281c5.197 2.167 9.916 5.342 13.884 9.34l5.12 6.4c1.613 2.377 2.906 4.962 3.84 7.68 1.297 2.539 2.163 5.282 2.56 8.107 0.209 2.697 0.209 5.41 0 8.107 0.128 6.4-1.182 12.745-3.84 18.569-2.654 5.824-6.588 10.975-11.503 15.073-4.919 4.097-10.692 7.036-16.9 8.599s-12.685 1.708-18.957 0.427l1.707-0.853z" />
<glyph unicode="&#xe90b;" glyph-name="ambulance" d="M448 554.667h-42.667v42.667c0 11.316-4.495 22.168-12.497 30.17s-18.854 12.497-30.17 12.497c-11.316 0-22.168-4.495-30.17-12.497s-12.497-18.854-12.497-30.17v-42.667h-42.667c-11.316 0-22.168-4.495-30.17-12.497s-12.497-18.855-12.497-30.17c0-11.315 4.495-22.17 12.497-30.17s18.854-12.497 30.17-12.497h42.667v-42.667c0-11.315 4.495-22.17 12.497-30.17s18.854-12.497 30.17-12.497c11.316 0 22.168 4.497 30.17 12.497s12.497 18.854 12.497 30.17v42.667h42.667c11.315 0 22.17 4.497 30.17 12.497s12.497 18.854 12.497 30.17c0 11.315-4.497 22.168-12.497 30.17s-18.854 12.497-30.17 12.497zM978.347 462.933l-2.56 4.693c-0.734 2.112-1.741 4.117-2.987 5.973l-102.4 136.533c-11.921 15.897-27.383 28.8-45.158 37.687-17.771 8.887-37.372 13.513-57.242 13.513h-85.333v42.667c0 33.948-13.487 66.505-37.491 90.51s-56.563 37.49-90.509 37.49h-384c-33.948 0-66.505-13.486-90.51-37.49s-37.49-56.562-37.49-90.51v-469.333c0-11.315 4.495-22.17 12.497-30.17s18.854-12.497 30.17-12.497h42.667c0-33.946 13.486-66.505 37.49-90.509s56.562-37.491 90.51-37.491c33.948 0 66.505 13.487 90.51 37.491s37.49 56.563 37.49 90.509h256c0-33.946 13.487-66.505 37.491-90.509s56.563-37.491 90.509-37.491c33.946 0 66.505 13.487 90.509 37.491s37.491 56.563 37.491 90.509h42.667c11.315 0 22.17 4.497 30.17 12.497s12.497 18.854 12.497 30.17v213.333c-0.094 5.116-1.105 10.176-2.987 14.933v0zM256 149.333c-8.439 0-16.688 2.5-23.704 7.189s-12.485 11.354-15.715 19.149c-3.229 7.795-4.074 16.375-2.428 24.653s5.71 15.881 11.677 21.845c5.967 5.969 13.57 10.031 21.846 11.678s16.855 0.802 24.652-2.428c7.796-3.23 14.46-8.7 19.148-15.714 4.688-7.019 7.191-15.266 7.191-23.706 0-11.315-4.495-22.17-12.497-30.17s-18.854-12.497-30.17-12.497zM597.333 277.333h-246.613c-11.997 13.201-26.62 23.744-42.932 30.963-16.311 7.215-33.951 10.944-51.788 10.944s-35.476-3.729-51.788-10.944c-16.312-7.219-30.935-17.762-42.932-30.963h-33.28v426.667c0 11.316 4.495 22.168 12.497 30.17s18.854 12.497 30.17 12.497h384c11.315 0 22.17-4.495 30.17-12.497s12.497-18.854 12.497-30.17v-426.667zM682.667 576h85.333c6.622 0 13.158-1.542 19.081-4.504 5.926-2.962 11.081-7.263 15.053-12.562l51.2-68.267h-170.667v85.333zM768 149.333c-8.439 0-16.687 2.5-23.706 7.189-7.014 4.689-12.484 11.354-15.714 19.149s-4.075 16.375-2.428 24.653c1.647 8.277 5.709 15.881 11.678 21.845 5.965 5.969 13.568 10.031 21.845 11.678s16.858 0.802 24.653-2.428c7.795-3.23 14.46-8.7 19.149-15.714 4.689-7.019 7.189-15.266 7.189-23.706 0-11.315-4.497-22.17-12.497-30.17s-18.854-12.497-30.17-12.497zM896 277.333h-33.28c-22.703 25.003-54.37 40.017-88.094 41.775s-66.778-9.886-91.959-32.388v118.613h213.333v-128z" />
<glyph unicode="&#xe90c;" glyph-name="approved-mail" d="M695.040 588.365c3.968-3.999 8.687-7.173 13.884-9.339 5.201-2.166 10.778-3.281 16.41-3.281s11.209 1.115 16.41 3.281c5.197 2.166 9.916 5.341 13.884 9.339l170.667 170.667c8.034 8.035 12.548 18.931 12.548 30.293s-4.514 22.259-12.548 30.293c-8.034 8.035-18.931 12.548-30.293 12.548s-22.259-4.514-30.293-12.548l-140.373-140.8-55.040 55.467c-3.977 3.978-8.7 7.134-13.901 9.287-5.197 2.153-10.765 3.261-16.393 3.261-11.362 0-22.259-4.514-30.293-12.548-3.977-3.978-7.134-8.701-9.289-13.899-2.15-5.198-3.26-10.769-3.26-16.395 0-11.362 4.514-22.259 12.548-30.293l85.333-85.333zM896 618.659c-11.315 0-22.17-4.495-30.17-12.497s-12.497-18.854-12.497-30.17v-384c0-11.315-4.497-22.17-12.497-30.17s-18.854-12.497-30.17-12.497h-597.333c-11.316 0-22.168 4.497-30.17 12.497s-12.497 18.854-12.497 30.17v409.174l250.88-251.307c23.945-23.748 56.299-37.090 90.027-37.12 34.577 0.179 67.686 13.973 92.16 38.4l73.387 73.387c8.034 8.034 12.548 18.931 12.548 30.293s-4.514 22.259-12.548 30.293c-8.034 8.034-18.931 12.548-30.293 12.548s-22.259-4.514-30.293-12.548l-74.667-74.667c-7.974-7.817-18.697-12.194-29.867-12.194s-21.892 4.378-29.867 12.194l-251.307 250.88h238.507c11.315 0 22.17 4.495 30.17 12.497s12.497 18.854 12.497 30.17c0 11.316-4.497 22.168-12.497 30.17s-18.854 12.497-30.17 12.497h-256c-33.948 0-66.505-13.486-90.51-37.49s-37.49-56.562-37.49-90.51v-426.667c0-33.946 13.486-66.505 37.49-90.509s56.562-37.491 90.51-37.491h597.333c33.946 0 66.505 13.487 90.509 37.491s37.491 56.563 37.491 90.509v384c0 11.316-4.497 22.168-12.497 30.17s-18.854 12.497-30.17 12.497z" />
<glyph unicode="&#xe90d;" glyph-name="calculation" d="M542.293 222.293c-2.099 1.929-4.386 3.644-6.827 5.12-2.18 1.69-4.634 2.987-7.253 3.84-2.539 1.297-5.282 2.163-8.107 2.56-8.175 1.728-16.687 0.832-24.32-2.56-5.295-1.916-10.103-4.975-14.084-8.956s-7.040-8.789-8.956-14.084c-2.389-5.065-3.558-10.615-3.413-16.213-0.068-5.547 0.947-11.055 2.987-16.213 2.475-5.099 5.632-9.835 9.387-14.080 3.985-3.955 8.717-7.083 13.914-9.207 5.197-2.121 10.765-3.2 16.38-3.166 5.598-0.145 11.149 1.024 16.213 3.413 5.171 2.159 9.933 5.193 14.080 8.96 3.955 3.985 7.083 8.717 9.207 13.914 2.121 5.197 3.2 10.765 3.166 16.38-0.068 5.577-1.229 11.085-3.413 16.213-2.031 5.239-5.077 10.022-8.96 14.080v0zM364.8 398.080c-2.178 1.69-4.632 2.987-7.253 3.84-2.485 1.596-5.228 2.752-8.107 3.413-5.474 1.276-11.167 1.276-16.64 0l-7.68-2.56-7.68-3.84-6.4-5.12c-7.999-8.393-12.434-19.554-12.373-31.147-0.032-5.615 1.044-11.183 3.167-16.38s5.252-9.929 9.206-13.914c4.147-3.767 8.909-6.801 14.080-8.96 6.464-2.654 13.481-3.682 20.435-2.991s13.631 3.081 19.446 6.955c5.815 3.878 10.588 9.122 13.901 15.275s5.063 13.026 5.098 20.015c-0.157 11.298-4.577 22.118-12.373 30.293l-6.827 5.12zM371.627 222.293c-4.058 3.883-8.843 6.929-14.080 8.96-7.724 3.58-16.342 4.77-24.747 3.413l-7.68-2.56c-2.719-0.934-5.301-2.227-7.68-3.84-2.235-1.574-4.372-3.285-6.4-5.12-3.884-4.058-6.929-8.841-8.96-14.080-2.257-5.107-3.423-10.628-3.423-16.213s1.166-11.106 3.423-16.213c2.161-5.171 5.191-9.933 8.96-14.080 3.916-4.109 8.612-7.394 13.814-9.664 5.201-2.274 10.804-3.486 16.48-3.563 5.597-0.145 11.15 1.024 16.213 3.413 5.171 2.159 9.933 5.193 14.080 8.96 3.769 4.147 6.799 8.909 8.96 14.080 2.257 5.107 3.423 10.628 3.423 16.213s-1.166 11.106-3.423 16.213c-2.031 5.239-5.076 10.022-8.96 14.080v0zM495.787 401.92c-5.239-2.031-10.022-5.077-14.080-8.96-7.795-8.175-12.215-18.995-12.373-30.293 0.034-6.989 1.783-13.862 5.099-20.015 3.311-6.153 8.085-11.396 13.901-15.275 5.815-3.874 12.493-6.263 19.447-6.955 6.95-0.691 13.969 0.337 20.433 2.991 5.171 2.159 9.933 5.193 14.080 8.96 3.955 3.985 7.083 8.717 9.207 13.914 2.121 5.197 3.2 10.765 3.166 16.38-0.158 11.298-4.578 22.118-12.373 30.293-5.999 5.922-13.619 9.933-21.897 11.524-8.277 1.596-16.841 0.704-24.61-2.564v0zM712.96 222.293c-4.147 3.767-8.909 6.801-14.080 8.96-7.77 3.268-16.333 4.16-24.61 2.564-8.277-1.591-15.898-5.602-21.897-11.524-3.883-4.058-6.929-8.841-8.96-14.080-2.257-5.107-3.422-10.628-3.422-16.213s1.165-11.106 3.422-16.213c2.159-5.171 5.193-9.933 8.96-14.080 3.985-3.955 8.717-7.083 13.914-9.207 5.197-2.121 10.765-3.2 16.38-3.166 5.598-0.145 11.149 1.024 16.213 3.413 5.171 2.159 9.933 5.193 14.080 8.96 5.922 5.999 9.933 13.619 11.524 21.897 1.596 8.277 0.704 16.841-2.564 24.61-2.031 5.239-5.077 10.022-8.96 14.080zM682.667 746.667h-341.333c-11.316 0-22.168-4.495-30.17-12.497s-12.497-18.854-12.497-30.17v-170.667c0-11.315 4.495-22.17 12.497-30.17s18.854-12.497 30.17-12.497h341.333c11.315 0 22.17 4.497 30.17 12.497s12.497 18.854 12.497 30.17v170.667c0 11.316-4.497 22.168-12.497 30.17s-18.854 12.497-30.17 12.497zM640 576h-256v85.333h256v-85.333zM768 917.333h-512c-33.948 0-66.505-13.486-90.51-37.49s-37.49-56.562-37.49-90.51v-682.667c0-33.946 13.486-66.505 37.49-90.509s56.562-37.491 90.51-37.491h512c33.946 0 66.505 13.487 90.509 37.491s37.491 56.563 37.491 90.509v682.667c0 33.948-13.487 66.505-37.491 90.51s-56.563 37.49-90.509 37.49v0zM810.667 106.667c0-11.315-4.497-22.17-12.497-30.17s-18.854-12.497-30.17-12.497h-512c-11.316 0-22.168 4.497-30.17 12.497s-12.497 18.854-12.497 30.17v682.667c0 11.316 4.495 22.168 12.497 30.17s18.854 12.497 30.17 12.497h512c11.315 0 22.17-4.495 30.17-12.497s12.497-18.854 12.497-30.17v-682.667zM706.133 398.080c-2.18 1.69-4.634 2.987-7.253 3.84-2.539 1.297-5.282 2.163-8.107 2.56-5.474 1.276-11.166 1.276-16.64 0l-7.68-2.56-7.68-3.84-6.4-5.12c-7.795-8.175-12.215-18.995-12.373-30.293 0.034-6.989 1.783-13.862 5.099-20.015 3.311-6.153 8.085-11.396 13.901-15.275 5.815-3.874 12.493-6.263 19.447-6.955 6.95-0.691 13.969 0.337 20.433 2.991 5.171 2.159 9.933 5.193 14.080 8.96 3.955 3.985 7.083 8.717 9.207 13.914 2.121 5.197 3.2 10.765 3.166 16.38-0.158 11.298-4.578 22.118-12.373 30.293l-6.827 5.12z" />
<glyph unicode="&#xe90e;" glyph-name="calif-riesgo" d="M512 917.333c-58.735-0.074-116.141-17.463-165.044-49.993s-87.128-78.757-109.895-132.898c-22.768-54.141-29.067-113.794-18.109-171.496 10.958-57.705 38.685-110.893 79.715-152.919v-388.693c0.022-7.275 1.903-14.421 5.464-20.762s8.684-11.669 14.883-15.471c6.199-3.806 13.267-5.965 20.534-6.268s14.491 1.254 20.986 4.527l151.466 75.52 151.467-75.52c5.943-3.046 12.523-4.655 19.2-4.693 7.987-0.026 15.825 2.193 22.613 6.4 6.148 3.844 11.217 9.19 14.724 15.535 3.511 6.345 5.346 13.483 5.329 20.732v388.693c41.028 42.027 68.757 95.215 79.714 152.919 10.961 57.702 4.659 117.355-18.108 171.496s-60.992 100.368-109.897 132.898c-48.9 32.53-106.308 49.919-165.043 49.993v0zM640 90.453l-108.8 54.187c-5.956 2.999-12.531 4.565-19.2 4.565s-13.244-1.566-19.2-4.565l-108.799-54.187v258.56c27.005-12.753 55.769-21.38 85.332-25.6v-46.080c0-11.315 4.497-22.17 12.497-30.17s18.854-12.497 30.17-12.497c11.315 0 22.17 4.497 30.17 12.497 8.004 8 12.497 18.854 12.497 30.17v46.080c29.564 4.22 58.33 12.847 85.333 25.6v-258.56zM512 405.333c-42.193 0-83.439 12.51-118.521 35.955-35.082 23.441-62.426 56.759-78.572 95.739-16.147 38.982-20.372 81.876-12.14 123.258s28.55 79.395 58.385 109.23c29.835 29.836 67.849 50.153 109.232 58.385s84.275 4.007 123.255-12.14c38.985-16.147 72.303-43.49 95.744-78.573s35.951-76.328 35.951-118.522c0-56.579-22.477-110.844-62.485-150.848-40.004-40.009-94.268-62.485-150.848-62.485v0z" />
<glyph unicode="&#xe90f;" glyph-name="call" d="M829.44 405.316c-9.387 0-19.2 2.987-28.587 5.12-19.008 4.19-37.692 9.754-55.893 16.64-19.793 7.202-41.553 6.827-61.086-1.050-19.537-7.876-35.465-22.699-44.727-41.617l-9.387-19.2c-41.557 23.121-79.744 51.831-113.493 85.333-33.506 33.749-62.217 71.936-85.333 113.495l17.92 11.947c18.914 9.263 33.741 25.193 41.617 44.728s8.247 41.292 1.050 61.085c-6.775 18.243-12.335 36.916-16.64 55.893-2.133 9.387-3.84 19.2-5.12 29.013-5.184 30.054-20.924 57.27-44.39 76.747s-53.117 29.936-83.61 29.493h-128c-18.388 0.173-36.597-3.619-53.388-11.116s-31.77-18.524-43.916-32.331c-12.146-13.806-21.175-30.068-26.472-47.677s-6.737-36.154-4.224-54.37c22.73-178.747 104.364-344.825 232.006-472.006 127.645-127.181 294.019-208.209 472.848-230.289h16.213c31.462-0.043 61.841 11.499 85.333 32.427 13.495 12.075 24.282 26.876 31.633 43.422 7.356 16.55 11.115 34.47 11.034 52.578v128c-0.525 29.641-11.315 58.176-30.537 80.742-19.217 22.566-45.675 37.76-74.85 42.991v0zM850.773 149.316c-0.009-6.054-1.306-12.045-3.806-17.562-2.505-5.517-6.153-10.436-10.701-14.438-4.77-4.113-10.342-7.189-16.367-9.028-6.025-1.835-12.369-2.394-18.62-1.638-159.791 20.489-308.215 93.594-421.859 207.778-113.644 114.18-186.039 262.951-205.769 422.837-0.679 6.25-0.084 12.573 1.749 18.586s4.867 11.593 8.917 16.401c3.998 4.551 8.92 8.199 14.438 10.7s11.504 3.799 17.562 3.806h128c9.922 0.221 19.61-3.024 27.398-9.176s13.187-14.827 15.269-24.53c1.707-11.662 3.84-23.182 6.4-34.56 4.929-22.491 11.488-44.594 19.627-66.133l-59.733-27.733c-5.107-2.343-9.702-5.672-13.519-9.796s-6.782-8.961-8.725-14.234c-1.943-5.273-2.825-10.877-2.595-16.492s1.565-11.128 3.932-16.225c61.406-131.53 167.135-237.263 298.668-298.668 10.385-4.267 22.037-4.267 32.427 0 5.321 1.907 10.21 4.847 14.383 8.657 4.177 3.806 7.552 8.405 9.937 13.53l26.453 59.733c22.054-7.885 44.57-14.438 67.413-19.627 11.375-2.56 22.895-4.693 34.56-6.4 9.702-2.078 18.377-7.479 24.529-15.266s9.399-17.476 9.178-27.401l0.853-133.12z" />
<glyph unicode="&#xe910;" glyph-name="call-cancel" d="M846.933 722.761l76.373 76.373c4.467 3.825 8.094 8.532 10.654 13.825s4.002 11.059 4.228 16.935c0.226 5.876-0.764 11.735-2.91 17.211s-5.397 10.448-9.557 14.606c-4.156 4.158-9.131 7.412-14.605 9.557s-11.337 3.135-17.212 2.908c-5.875-0.227-11.639-1.666-16.934-4.227s-10.001-6.188-13.824-10.655l-76.373-76.373-76.8 76.373c-8.162 6.99-18.662 10.643-29.402 10.228s-20.924-4.867-28.523-12.465c-7.599-7.599-12.049-17.785-12.463-28.523-0.418-10.738 3.238-21.237 10.227-29.4l75.52-76.373-76.373-76.8c-7.949-7.994-12.407-18.808-12.407-30.080s4.459-22.086 12.407-30.080c7.991-7.947 18.807-12.407 30.080-12.407s22.084 4.46 30.080 12.407l77.653 75.52 76.373-76.373c7.991-7.947 18.807-12.407 30.080-12.407s22.084 4.46 30.080 12.407c7.945 7.994 12.407 18.808 12.407 30.080s-4.463 22.086-12.407 30.080l-76.373 77.653zM829.44 405.321c-9.387 0-19.2 2.987-28.587 5.12-19.008 4.19-37.692 9.749-55.893 16.64-19.793 7.202-41.553 6.827-61.086-1.050-19.537-7.876-35.465-22.699-44.727-41.617l-9.387-19.2c-41.557 23.117-79.744 51.831-113.493 85.333-33.506 33.749-62.217 71.936-85.333 113.494l17.92 11.947c18.914 9.263 33.741 25.193 41.617 44.728s8.247 41.292 1.050 61.085c-6.775 18.243-12.335 36.916-16.64 55.893-2.133 9.387-3.84 19.2-5.12 29.013-5.184 30.054-20.924 57.27-44.39 76.747s-53.117 29.937-83.61 29.493h-128c-18.388 0.173-36.597-3.619-53.388-11.116s-31.77-18.524-43.916-32.331c-12.146-13.806-21.175-30.068-26.472-47.677s-6.737-36.153-4.224-54.37c22.73-178.747 104.364-344.828 232.006-472.005 127.645-127.181 294.019-208.209 472.848-230.289h16.213c31.462-0.047 61.841 11.499 85.333 32.427 13.495 12.075 24.282 26.871 31.633 43.422 7.356 16.55 11.115 34.47 11.034 52.578v128c-0.525 29.636-11.315 58.176-30.537 80.738-19.217 22.566-45.675 37.764-74.85 42.995v0zM850.773 149.321c-0.009-6.059-1.306-12.045-3.806-17.562-2.505-5.517-6.153-10.441-10.701-14.438-4.77-4.117-10.342-7.189-16.367-9.028-6.025-1.835-12.369-2.394-18.62-1.638-159.791 20.489-308.215 93.589-421.859 207.774s-186.039 262.954-205.769 422.84c-0.679 6.25-0.084 12.573 1.749 18.586s4.867 11.593 8.917 16.401c3.998 4.551 8.92 8.199 14.438 10.7s11.504 3.799 17.562 3.806h128c9.922 0.221 19.61-3.024 27.398-9.176s13.187-14.827 15.269-24.53c1.707-11.662 3.84-23.182 6.4-34.56 4.929-22.491 11.488-44.594 19.627-66.133l-59.733-27.733c-5.107-2.343-9.702-5.672-13.519-9.796s-6.782-8.961-8.725-14.234c-1.943-5.273-2.825-10.877-2.595-16.492s1.565-11.128 3.932-16.225c61.406-131.529 167.135-237.261 298.668-298.667 10.385-4.267 22.037-4.267 32.427 0 5.321 1.903 10.21 4.847 14.383 8.653 4.177 3.81 7.552 8.41 9.937 13.534l26.453 59.733c22.054-7.889 44.57-14.443 67.413-19.627 11.375-2.56 22.895-4.693 34.56-6.4 9.702-2.082 18.377-7.479 24.529-15.266 6.153-7.791 9.399-17.476 9.178-27.401l0.853-133.12z" />
<glyph unicode="&#xe911;" glyph-name="canales-pago" d="M440.887 568.903h-106.667c-9.43 0-18.473 3.746-25.141 10.414s-10.414 15.712-10.414 25.141c0 9.43 3.746 18.474 10.414 25.142s15.712 10.414 25.141 10.414h106.667c9.429 0 18.475-3.746 25.139-10.414 6.669-6.668 10.415-15.712 10.415-25.142s-3.746-18.473-10.415-25.141c-6.665-6.668-15.71-10.414-25.139-10.414zM263.11 924.458h497.778c28.288 0 55.42-11.238 75.426-31.242 20.002-20.004 31.241-47.135 31.241-75.425v-320c0-28.288-11.238-55.42-31.241-75.426-20.006-20.002-47.138-31.241-75.426-31.241h-206.221v-28.467h213.333c11.315 0 22.17-4.497 30.17-12.497s12.497-18.854 12.497-30.17v-128h85.333c11.315 0 22.17-4.497 30.17-12.497s12.497-18.854 12.497-30.17v-85.333c0-11.315-4.497-22.17-12.497-30.17s-18.854-12.497-30.17-12.497c-11.315 0-22.17 4.497-30.17 12.497s-12.497 18.854-12.497 30.17v42.667h-170.667v-42.667c0-11.315-4.497-22.17-12.497-30.17s-18.854-12.497-30.17-12.497c-11.315 0-22.17 4.497-30.17 12.497s-12.497 18.854-12.497 30.17v85.333c0 11.315 4.497 22.17 12.497 30.17s18.854 12.497 30.17 12.497h85.333v85.333h-426.667v-85.333h85.333c11.316 0 22.168-4.497 30.17-12.497s12.497-18.854 12.497-30.17v-85.333c0-11.315-4.495-22.17-12.497-30.17s-18.854-12.497-30.17-12.497c-11.316 0-22.168 4.497-30.17 12.497s-12.497 18.854-12.497 30.17v42.667h-170.667v-42.667c0-11.315-4.495-22.17-12.497-30.17s-18.854-12.497-30.17-12.497c-11.316 0-22.168 4.497-30.17 12.497s-12.497 18.854-12.497 30.17v85.333c0 11.315 4.495 22.17 12.497 30.17s18.854 12.497 30.17 12.497h85.333v128c0 11.315 4.495 22.17 12.497 30.17s18.854 12.497 30.17 12.497h213.333v28.467h-206.224c-28.29 0-55.421 11.238-75.425 31.241-20.004 20.006-31.242 47.138-31.242 75.426v320c0 28.29 11.238 55.421 31.242 75.425s47.135 31.242 75.425 31.242zM786.027 472.649c6.669 6.669 10.415 15.714 10.415 25.143v213.333h-568.888v-213.333c0-9.429 3.746-18.475 10.414-25.143 6.668-6.665 15.712-10.411 25.142-10.411h497.778c9.429 0 18.475 3.746 25.139 10.411zM227.554 782.236h568.888v35.555c0 9.43-3.746 18.474-10.415 25.142-6.665 6.668-15.71 10.414-25.139 10.414h-497.778c-9.43 0-18.474-3.746-25.142-10.414s-10.414-15.712-10.414-25.142v-35.555z" />
<glyph unicode="&#xe912;" glyph-name="cancel-mail" d="M896 490.658c-11.315 0-22.17-4.493-30.17-12.497-8-8-12.497-18.854-12.497-30.17v-256c0-11.315-4.497-22.17-12.497-30.17s-18.854-12.497-30.17-12.497h-597.333c-11.316 0-22.168 4.497-30.17 12.497s-12.497 18.854-12.497 30.17v409.174l250.88-251.307c23.945-23.748 56.299-37.090 90.027-37.12 34.577 0.179 67.686 13.973 92.16 38.4l73.387 73.387c8.034 8.034 12.548 18.931 12.548 30.293s-4.514 22.259-12.548 30.293c-8.034 8.034-18.931 12.548-30.293 12.548s-22.259-4.514-30.293-12.548l-74.667-74.667c-7.974-7.817-18.697-12.194-29.867-12.194s-21.892 4.378-29.867 12.194l-251.307 250.88h323.84c11.315 0 22.17 4.495 30.17 12.497s12.497 18.854 12.497 30.17c0 11.316-4.497 22.168-12.497 30.17s-18.854 12.497-30.17 12.497h-341.333c-33.948 0-66.505-13.486-90.51-37.49s-37.49-56.562-37.49-90.51v-426.667c0-33.946 13.486-66.505 37.49-90.509s56.562-37.491 90.51-37.491h597.333c33.946 0 66.505 13.487 90.509 37.491s37.491 56.563 37.491 90.509v256c0 11.315-4.497 22.17-12.497 30.17-8 8.004-18.854 12.497-30.17 12.497zM870.827 703.992l55.467 55.040c8.034 8.035 12.548 18.931 12.548 30.293s-4.514 22.259-12.548 30.293c-8.034 8.035-18.931 12.548-30.293 12.548s-22.259-4.514-30.293-12.548l-55.040-55.467-55.040 55.467c-3.977 3.978-8.7 7.134-13.901 9.287-5.197 2.153-10.765 3.261-16.393 3.261-11.362 0-22.259-4.514-30.293-12.548s-12.548-18.931-12.548-30.293c0-11.362 4.514-22.259 12.548-30.293l55.467-55.040-55.467-55.040c-3.998-3.966-7.172-8.685-9.34-13.885s-3.281-10.776-3.281-16.409c0-5.632 1.114-11.209 3.281-16.408s5.342-9.918 9.34-13.885c3.968-3.999 8.687-7.173 13.884-9.339 5.201-2.166 10.778-3.281 16.41-3.281s11.209 1.115 16.41 3.281c5.197 2.166 9.916 5.341 13.884 9.339l55.040 55.467 55.040-55.467c3.968-3.999 8.687-7.173 13.884-9.339 5.201-2.166 10.778-3.281 16.41-3.281s11.209 1.115 16.41 3.281c5.197 2.166 9.916 5.341 13.884 9.339 3.998 3.967 7.172 8.686 9.34 13.885s3.281 10.776 3.281 16.408c0 5.633-1.114 11.209-3.281 16.409s-5.342 9.918-9.34 13.885l-55.467 55.040z" />
<glyph unicode="&#xe913;" glyph-name="capital" d="M262.092 802.321v-0.023c-5.622-2.742-10.875-5.437-15.759-8.064-9.861-5.253-18.132-10.207-24.652-14.469l84.556-124.415c-197.912-208.233-345.389-622.006 206.665-622.006 552.060 0 400.503 421.423 204.297 622.006l85.107 124.415c-9.63 6.428-23.317 14.353-40.273 22.74l-3.179 1.544c-56.239 27.302-146.556 58.659-245.952 58.659-101.511 0-194.269-32.717-250.809-60.387zM662.498 657.009v0c-94.831-33.707-206.942-33.707-301.751 0.046l-44.236 65.134c13.231-3.435 26.58-6.402 40.020-8.893 53.337-9.838 110.938-12.119 162.778 2.857 72.572 21.012 147.959 35.896 211.319 40.458l-68.13-99.601zM334.137 617.795c110.936-42.854 244.27-42.854 355.203 0.046 46.306-48.814 85.043-104.288 114.923-164.572 31.151-63.543 48.107-127.066 45.342-181.807-2.671-52.83-23.454-97.967-70.916-131.511-49.463-34.953-132.663-60.527-265.809-60.527-133.285 0-216.873 25.139-266.8 59.699-47.808 33.131-68.797 77.641-71.769 129.758-3.11 54.144 13.478 117.342 44.513 181.325 29.606 61.009 70.916 119.736 115.314 167.59v0zM307.641 772.485v0c51.839 22.003 125.865 44.144 205.238 44.144 52.070 0 101.653-9.539 144.047-22.303-50.803-8.18-101.047-19.5-150.451-33.891-42.394-12.28-92.067-10.944-141.603-1.82-19.537 3.617-38.799 8.387-57.231 13.87zM725.338 255.846c-0.832-0.866-0.666-2.027-0.956-3.017-1.459-5.786-4.736-10.957-9.357-14.75-4.621-3.797-10.342-6.020-16.324-6.345-7.155-0.87-14.37 1.007-20.181 5.248-5.815 4.245-9.783 10.53-11.106 17.583-0.926 4.173-0.909 8.499 0.055 12.663 0.969 4.164 2.854 8.060 5.525 11.405 2.675 3.345 6.063 6.054 9.92 7.932 3.857 1.873 8.085 2.867 12.382 2.91 7.121 0.491 14.165-1.754 19.682-6.268s9.088-10.961 9.984-18.014c0 0 0.247-0.247 0.375-0.371v-8.977zM418.896 223.71c-21.362 0.077-42.515 4.203-62.326 12.16-3.857 1.574-7.581 3.456-11.136 5.623-1.841 1.003-3.267 2.615-4.027 4.561s-0.806 4.096-0.128 6.071c2.964 9.041 5.983 18.086 9.058 27.132 0.432 1.357 1.175 2.598 2.169 3.622s2.214 1.805 3.562 2.283c1.348 0.478 2.79 0.636 4.21 0.465s2.782-0.666 3.978-1.446c10.729-6.289 22.488-10.641 34.737-12.864 13.553-3.063 27.623-3.063 41.177 0 8.508 1.801 16.119 6.494 21.521 13.278 7.812 10.214 9.643 32.341-6.814 44.297-8.661 6.054-18.146 10.846-28.169 14.229-13.976 4.599-27.439 10.615-40.181 17.95-10.816 6.323-20.231 14.767-27.673 24.819-9.164 12.599-13.51 28.045-12.258 43.55 1.704 26.765 15 46.080 38.019 59.358 14.208 7.983 30.079 12.582 46.372 13.44 19.204 1.553 38.528-0.439 57.007-5.871 5.739-1.715 11.302-3.959 16.619-6.703 1.126-0.461 2.146-1.148 2.999-2.010s1.527-1.886 1.975-3.012c0.452-1.126 0.67-2.334 0.64-3.546-0.026-1.212-0.294-2.402-0.794-3.507-2.991-8.273-5.999-16.644-9.015-25.109-0.401-1.412-1.126-2.709-2.125-3.789s-2.236-1.911-3.614-2.428c-1.382-0.516-2.863-0.7-4.326-0.538-1.463 0.158-2.871 0.657-4.105 1.459-9.856 5.265-20.659 8.555-31.787 9.681-8.815 1.259-17.775 1.135-26.551-0.375-6.502-1.165-12.646-3.81-17.95-7.731-3.032-2.428-5.499-5.483-7.232-8.951s-2.689-7.27-2.803-11.145c-0.115-3.87 0.615-7.723 2.14-11.285 1.524-3.567 3.807-6.758 6.691-9.361 6.080-4.911 12.804-8.973 19.987-12.079 10.637-4.919 21.897-8.273 32.576-13.193 12.169-5.090 23.565-11.844 33.865-20.062 7.518-6.020 13.679-13.555 18.074-22.106 4.399-8.555 6.933-17.933 7.437-27.529 1.638-17.344-2.607-34.739-12.058-49.404s-23.565-25.754-40.090-31.501c-11.989-4.501-24.597-7.164-37.393-7.898-4.113-0.371-8.187-0.457-12.259-0.538zM547.004 227.686h-12.467c-1.067-0.179-2.167-0.051-3.162 0.375s-1.847 1.131-2.449 2.027c-0.602 0.896-0.93 1.95-0.943 3.029-0.017 1.075 0.286 2.138 0.862 3.051l107.285 258.509c0.354 1.404 1.212 2.633 2.415 3.447s2.662 1.165 4.109 0.977h25.719c1.067 0.162 2.155 0.017 3.14-0.422 0.986-0.435 1.826-1.143 2.419-2.039s0.917-1.941 0.934-3.017c0.017-1.071-0.277-2.129-0.845-3.042l-108.032-258.385c-0.354-1.442-1.237-2.701-2.475-3.537-1.233-0.832-2.735-1.178-4.215-0.973h-12.297z" />
<glyph unicode="&#xe914;" glyph-name="check" d="M919.121 769.578c-5.645 6.26-12.361 11.229-19.759 14.619-7.403 3.391-15.339 5.136-23.351 5.136-8.017 0-15.953-1.745-23.351-5.136s-14.114-8.359-19.759-14.619l-452.357-498.231-190.050 209.711c-5.861 6.229-12.779 11.123-20.36 14.413-7.581 3.285-15.676 4.894-23.823 4.74s-16.187-2.074-23.66-5.645c-7.473-3.575-14.233-8.73-19.895-15.177s-10.113-14.054-13.1-22.396c-2.988-8.337-4.453-17.242-4.312-26.202 0.141-8.964 1.885-17.805 5.133-26.027s7.936-15.654 13.797-21.884l233.16-256.461c5.644-6.259 12.36-11.226 19.759-14.618s15.335-5.137 23.351-5.137c8.015 0 15.952 1.745 23.351 5.137s14.115 8.358 19.759 14.618l495.467 544.98c6.161 6.254 11.081 13.844 14.443 22.293 3.366 8.449 5.103 17.572 5.103 26.796s-1.737 18.347-5.103 26.795c-3.362 8.448-8.282 16.039-14.443 22.293v0z" />
<glyph unicode="&#xe915;" glyph-name="chevrone-down" d="M537.916 260.574l243.2 238.933c17.067 17.067 17.067 42.668 0 59.735s-42.667 17.067-59.733 0l-209.067-209.068-209.066 209.068c-8.533 8.533-17.067 12.8-29.867 12.8-25.6 0-42.667-17.067-42.667-42.668 0-12.8 4.267-21.333 12.8-29.867l243.199-243.2c8.533-12.8 34.133-12.8 51.2 4.267z" />
<glyph unicode="&#xe916;" glyph-name="chevrone-right" d="M661.342 477.875l-238.933 243.2c-17.067 17.067-42.667 17.067-59.733 0s-17.067-42.667 0-59.733l209.067-209.067-209.067-209.067c-8.533-8.533-12.8-17.067-12.8-29.867 0-25.6 17.067-42.667 42.667-42.667 12.8 0 21.333 4.267 29.867 12.8l243.2 243.2c12.8 8.533 12.8 34.133-4.267 51.2z" />
<glyph unicode="&#xe917;" glyph-name="cliente" d="M670.293 417.724c41.83 32.909 72.363 78.037 87.347 129.11 14.989 51.071 13.683 105.544-3.729 155.839s-50.069 93.912-93.427 124.783c-43.358 30.871-95.262 47.46-148.484 47.46-53.227 0-105.126-16.59-148.483-47.46s-76.015-74.488-93.428-124.783c-17.414-50.295-18.718-104.768-3.731-155.839 14.987-51.073 45.519-96.201 87.349-129.11-71.677-28.719-134.217-76.348-180.954-137.813-46.737-61.461-75.918-134.455-84.433-211.2-0.617-5.606-0.123-11.273 1.452-16.687 1.575-5.41 4.2-10.462 7.727-14.861 7.121-8.879 17.479-14.571 28.795-15.812 11.316-1.246 22.663 2.057 31.544 9.178s14.571 17.476 15.816 28.796c9.369 83.405 49.138 160.435 111.711 216.371s143.56 86.857 227.489 86.857c83.93 0 164.915-30.921 227.49-86.857 62.571-55.936 102.34-132.966 111.71-216.371 1.161-10.487 6.161-20.169 14.042-27.183 7.881-7.010 18.078-10.854 28.625-10.79h4.693c11.183 1.284 21.406 6.942 28.442 15.731 7.031 8.794 10.304 20.006 9.105 31.202-8.555 76.962-37.892 150.144-84.873 211.703-46.976 61.555-109.82 109.171-181.794 137.737v0zM512 448.017c-33.754 0-66.752 10.010-94.817 28.762s-49.941 45.406-62.858 76.592c-12.917 31.185-16.297 65.501-9.712 98.607s22.839 63.516 46.708 87.384c23.868 23.868 54.278 40.122 87.383 46.708 33.109 6.586 67.422 3.206 98.607-9.712s57.839-34.792 76.595-62.858c18.752-28.066 28.762-61.062 28.762-94.817 0-45.263-17.98-88.672-49.988-120.681-32.004-32.004-75.413-49.984-120.678-49.984z" />
<glyph unicode="&#xe918;" glyph-name="close" d="M572.16 447.991l268.8 268.374c8.034 8.035 12.548 18.931 12.548 30.293s-4.514 22.259-12.548 30.293c-8.034 8.035-18.931 12.548-30.293 12.548s-22.259-4.514-30.293-12.548l-268.373-268.8-268.373 268.8c-8.034 8.035-18.931 12.548-30.293 12.548s-22.259-4.514-30.293-12.548c-8.034-8.034-12.548-18.931-12.548-30.293s4.514-22.259 12.548-30.293l268.8-268.374-268.8-268.373c-3.999-3.964-7.173-8.683-9.339-13.884s-3.281-10.778-3.281-16.41c0-5.632 1.115-11.209 3.281-16.41 2.166-5.197 5.34-9.916 9.339-13.884 3.966-3.998 8.685-7.172 13.885-9.34 5.199-2.163 10.776-3.281 16.409-3.281s11.209 1.118 16.409 3.281c5.199 2.167 9.918 5.342 13.885 9.34l268.373 268.8 268.373-268.8c3.968-3.998 8.687-7.172 13.884-9.34 5.201-2.163 10.778-3.281 16.41-3.281s11.209 1.118 16.41 3.281c5.197 2.167 9.916 5.342 13.884 9.34 3.998 3.968 7.172 8.687 9.34 13.884 2.167 5.201 3.281 10.778 3.281 16.41s-1.114 11.209-3.281 16.41c-2.167 5.201-5.342 9.92-9.34 13.884l-268.8 268.373z" />
<glyph unicode="&#xe919;" glyph-name="close-2" d="M670.285 606.301c-3.964 3.999-8.683 7.173-13.884 9.339-5.197 2.166-10.778 3.281-16.41 3.281s-11.209-1.115-16.405-3.281c-5.201-2.166-9.92-5.341-13.888-9.339l-97.707-98.132-97.705 98.132c-8.035 8.034-18.931 12.548-30.293 12.548s-22.259-4.514-30.294-12.548c-8.034-8.035-12.548-18.931-12.548-30.294s4.514-22.259 12.548-30.293l98.132-97.705-98.132-97.707c-3.999-3.968-7.173-8.687-9.339-13.888-2.166-5.197-3.281-10.773-3.281-16.405s1.115-11.213 3.281-16.41c2.166-5.201 5.341-9.92 9.339-13.884 3.967-4.002 8.686-7.177 13.885-9.34 5.199-2.167 10.776-3.281 16.409-3.281s11.209 1.114 16.408 3.281c5.199 2.163 9.918 5.338 13.885 9.34l97.705 98.133 97.707-98.133c3.968-4.002 8.687-7.177 13.888-9.34 5.197-2.167 10.773-3.281 16.405-3.281s11.213 1.114 16.41 3.281c5.201 2.163 9.92 5.338 13.884 9.34 4.002 3.964 7.177 8.683 9.34 13.884 2.167 5.197 3.281 10.778 3.281 16.41s-1.114 11.209-3.281 16.405c-2.163 5.201-5.338 9.92-9.34 13.888l-98.133 97.707 98.133 97.705c4.002 3.967 7.177 8.686 9.34 13.885 2.167 5.199 3.281 10.776 3.281 16.408s-1.114 11.209-3.281 16.409c-2.163 5.199-5.338 9.918-9.34 13.885v0zM813.645 749.66c-39.356 40.751-86.438 73.256-138.492 95.617-52.058 22.361-108.045 34.131-164.698 34.624-56.649 0.492-112.834-10.303-165.27-31.756s-100.074-53.135-140.134-93.196c-40.061-40.061-71.742-87.699-93.196-140.134s-32.249-108.621-31.756-165.27c0.492-56.653 12.262-112.64 34.624-164.698 22.361-52.053 54.865-99.136 95.617-138.492 39.358-40.751 86.439-73.259 138.494-95.62 52.055-22.357 108.041-34.129 164.694-34.62 56.653-0.495 112.836 10.3 165.274 31.753 52.433 21.457 100.075 53.137 140.134 93.197s71.74 87.701 93.197 140.134c21.453 52.437 32.247 108.621 31.753 165.274-0.491 56.653-12.262 112.639-34.62 164.694-22.362 52.055-54.869 99.136-95.62 138.494v0zM753.485 206.515c-55.804-55.868-129.254-90.662-207.838-98.445-78.579-7.787-157.43 11.913-223.114 55.744s-114.141 109.082-137.111 184.631c-22.971 75.55-19.037 156.727 11.133 229.704s84.709 133.233 154.324 170.505c69.615 37.273 150.002 49.256 227.459 33.907 77.461-15.349 147.204-57.080 197.346-118.084s77.581-137.506 77.641-216.469c0.154-44.855-8.593-89.297-25.728-130.748-17.139-41.455-42.33-79.095-74.112-110.746v0z" />
<glyph unicode="&#xe91a;" glyph-name="close-small" d="M572.16 447.991l183.467 183.040c8.034 8.035 12.548 18.931 12.548 30.293s-4.514 22.259-12.548 30.293c-8.034 8.035-18.931 12.548-30.293 12.548s-22.259-4.514-30.293-12.548l-183.040-183.467-183.040 183.467c-8.034 8.035-18.931 12.548-30.293 12.548s-22.259-4.514-30.293-12.548c-8.034-8.034-12.548-18.931-12.548-30.293s4.514-22.259 12.548-30.293l183.467-183.040-183.467-183.040c-3.999-3.964-7.173-8.683-9.339-13.884s-3.281-10.778-3.281-16.41c0-5.632 1.115-11.209 3.281-16.41 2.166-5.197 5.34-9.916 9.339-13.884 3.966-3.998 8.685-7.172 13.885-9.34 5.199-2.163 10.776-3.281 16.409-3.281s11.209 1.118 16.409 3.281c5.199 2.167 9.918 5.342 13.885 9.34l183.040 183.467 183.040-183.467c3.968-3.998 8.687-7.172 13.884-9.34 5.201-2.163 10.778-3.281 16.41-3.281s11.209 1.118 16.41 3.281c5.197 2.167 9.916 5.342 13.884 9.34 3.998 3.968 7.172 8.687 9.34 13.884 2.167 5.201 3.281 10.778 3.281 16.41s-1.114 11.209-3.281 16.41c-2.167 5.201-5.342 9.92-9.34 13.884l-183.467 183.040z" />
<glyph unicode="&#xe91b;" glyph-name="colaboradores" d="M524.8 438.613c22.767 19.708 41.028 44.079 53.542 71.467 12.514 27.385 18.991 57.143 18.991 87.253 0 56.579-22.477 110.842-62.485 150.849-40.004 40.008-94.268 62.484-150.848 62.484s-110.842-22.476-150.849-62.484c-40.008-40.008-62.484-94.27-62.484-150.849 0-30.11 6.477-59.868 18.992-87.253 12.515-27.388 30.775-51.759 53.541-71.467-59.727-27.046-110.401-70.72-145.964-125.803-35.562-55.087-54.507-119.245-54.57-184.811 0-11.315 4.495-22.17 12.497-30.17s18.854-12.497 30.17-12.497c11.316 0 22.168 4.497 30.17 12.497s12.497 18.854 12.497 30.17c0 67.895 26.971 133.009 74.981 181.018 48.009 48.013 113.124 74.982 181.019 74.982s133.009-26.97 181.018-74.982c48.013-48.009 74.982-113.122 74.982-181.018 0-11.315 4.497-22.17 12.497-30.17s18.854-12.497 30.17-12.497c11.315 0 22.17 4.497 30.17 12.497s12.497 18.854 12.497 30.17c-0.064 65.566-19.008 129.724-54.571 184.811-35.563 55.083-86.234 98.756-145.963 125.803v0zM384 469.333c-25.316 0-50.063 7.505-71.113 21.572-21.050 14.063-37.456 34.057-47.144 57.444-9.688 23.389-12.223 49.126-7.284 73.955s17.13 47.637 35.031 65.538c17.901 17.901 40.709 30.092 65.538 35.031s50.566 2.404 73.957-7.284c23.386-9.688 43.379-26.094 57.442-47.144 14.067-21.050 21.572-45.797 21.572-71.113 0-33.948-13.487-66.505-37.491-90.509s-56.561-37.491-90.509-37.491zM799.573 455.68c27.307 30.75 45.141 68.732 51.362 109.383 6.221 40.649 0.559 82.23-16.299 119.737-16.862 37.507-44.203 69.342-78.733 91.673-34.534 22.33-74.782 34.205-115.904 34.194-11.315 0-22.17-4.495-30.17-12.497s-12.497-18.854-12.497-30.17c0-11.316 4.497-22.168 12.497-30.17s18.854-12.497 30.17-12.497c33.946 0 66.505-13.486 90.509-37.49s37.491-56.562 37.491-90.51c-0.060-22.41-6.003-44.412-17.233-63.805-11.234-19.391-27.358-35.498-46.767-46.702-6.327-3.648-11.61-8.862-15.343-15.134-3.738-6.276-5.798-13.406-5.99-20.706-0.179-7.245 1.489-14.413 4.851-20.834 3.358-6.417 8.294-11.878 14.349-15.859l16.64-11.093 5.547-2.987c51.43-24.393 94.818-62.976 125.056-111.202 30.234-48.226 46.059-104.090 45.611-161.011 0-11.315 4.497-22.17 12.497-30.17s18.854-12.497 30.17-12.497c11.315 0 22.17 4.497 30.17 12.497s12.497 18.854 12.497 30.17c0.35 65.476-16.051 129.95-47.637 187.302-31.59 57.353-77.321 105.677-132.843 140.378v0z" />
<glyph unicode="&#xe91c;" glyph-name="consultas-reclamos" d="M861.013 525.227c-30.69 5.555-61.824 8.267-93.013 8.107-17.92 0-35.413 0-52.907-3.413-21.777 29.061-49.574 53.075-81.493 70.4 27.418 29.941 42.637 69.057 42.667 109.653 0 43.68-17.353 85.57-48.239 116.456-30.882 30.886-72.777 48.238-116.454 48.238s-85.569-17.352-116.455-48.238c-30.886-30.886-48.238-72.776-48.238-116.456 0.031-40.596 15.252-79.712 42.667-109.653-31.727-17.415-59.481-41.245-81.493-69.973-16.64 2.987-34.133 2.987-52.053 2.987-31.214-0.119-62.35-3.119-93.013-8.96-9.94-1.818-18.912-7.104-25.318-14.916s-9.833-17.647-9.668-27.75v-352c-0.010-6.268 1.361-12.463 4.016-18.142 2.655-5.675 6.528-10.701 11.344-14.711 4.786-4.036 10.401-6.967 16.448-8.589 6.047-1.626 12.376-1.894 18.539-0.798 25.532 5.559 51.532 8.704 77.653 9.387 82.649 0.090 163.506-24.094 232.533-69.547v0l5.547-2.133c5.662-2.458 11.75-3.763 17.92-3.84 4.075 0.051 8.111 0.772 11.947 2.133h2.987l5.547 2.133c69.683 46.622 151.68 71.428 235.52 71.253 26.069-0.119 52.066-2.692 77.653-7.68 6.165-1.097 12.493-0.828 18.539 0.798 6.046 1.621 11.661 4.553 16.448 8.589 4.817 4.011 8.691 9.037 11.345 14.711 2.654 5.679 4.028 11.874 4.015 18.142v352c-0.034 9.958-3.554 19.588-9.941 27.226-6.391 7.633-15.249 12.796-25.045 14.588v0zM512 789.333c19.989-1.469 38.677-10.445 52.322-25.126 13.641-14.681 21.222-33.98 21.222-54.021s-7.582-39.34-21.222-54.021c-13.645-14.681-32.333-23.657-52.322-25.126v0c-19.985 1.469-38.677 10.445-52.322 25.126-13.641 14.681-21.222 33.98-21.222 54.021s7.582 39.34 21.222 54.021c13.645 14.681 32.337 23.657 52.322 25.126v0zM469.333 135.253c-66.872 30.912-139.662 46.925-213.333 46.933-14.080 0-28.16 0-42.667-2.133v267.947c35.779 4.002 71.928 3.285 107.52-2.133h4.693c50.842-9.344 99.562-27.849 143.786-54.613v-256zM512 465.067c-18.974 10.944-38.643 20.638-58.88 29.013h-2.56c-14.080 5.547-28.16 11.093-42.666 15.36 29.623 23.578 66.248 36.637 104.106 37.12v0c37.76-0.239 74.372-12.994 104.107-36.267-36.22-11.307-71.121-26.47-104.107-45.227v0zM810.667 180.053c-87.607 8.802-175.979-5.926-256-42.667v256c44.305 26.078 93.056 43.725 143.787 52.053h8.533c34.304 5.342 69.154 6.204 103.68 2.56v-267.947z" />
<glyph unicode="&#xe91d;" glyph-name="credit-card" d="M298.667 320h128c11.315 0 22.17 4.497 30.17 12.497s12.497 18.854 12.497 30.17c0 11.315-4.497 22.17-12.497 30.17s-18.854 12.497-30.17 12.497h-128c-11.316 0-22.168-4.497-30.17-12.497s-12.497-18.854-12.497-30.17c0-11.315 4.495-22.17 12.497-30.17s18.854-12.497 30.17-12.497zM810.667 746.667h-597.333c-33.948 0-66.505-13.486-90.51-37.49s-37.49-56.562-37.49-90.51v-384c0-33.946 13.486-66.505 37.49-90.509s56.562-37.491 90.51-37.491h597.333c33.946 0 66.505 13.487 90.509 37.491s37.491 56.563 37.491 90.509v384c0 33.948-13.487 66.505-37.491 90.51s-56.563 37.49-90.509 37.49zM853.333 234.667c0-11.315-4.497-22.17-12.497-30.17s-18.854-12.497-30.17-12.497h-597.333c-11.316 0-22.168 4.497-30.17 12.497s-12.497 18.854-12.497 30.17v256h682.667v-256zM853.333 576h-682.667v42.667c0 11.316 4.495 22.168 12.497 30.17s18.854 12.497 30.17 12.497h597.333c11.315 0 22.17-4.495 30.17-12.497s12.497-18.854 12.497-30.17v-42.667z" />
<glyph unicode="&#xe91e;" glyph-name="date" d="M750.933 721.067h-68.267v34.133c0 9.053-3.597 17.735-9.997 24.136s-15.083 9.997-24.137 9.997c-9.054 0-17.737-3.596-24.137-9.997s-9.997-15.084-9.997-24.136v-34.133h-204.8v34.133c0 9.053-3.596 17.735-9.997 24.136s-15.084 9.997-24.136 9.997c-9.053 0-17.735-3.596-24.136-9.997s-9.997-15.084-9.997-24.136v-34.133h-68.267c-27.158 0-53.204-10.789-72.408-29.992s-29.992-45.25-29.992-72.408v-409.6c0-27.157 10.789-53.205 29.992-72.41 19.204-19.2 45.25-29.99 72.408-29.99h477.867c27.157 0 53.205 10.79 72.41 29.99 19.2 19.204 29.99 45.252 29.99 72.41v409.6c0 27.158-10.79 53.204-29.99 72.408-19.204 19.203-45.252 29.992-72.41 29.992v0zM785.067 209.067c0-9.054-3.597-17.737-9.997-24.137s-15.083-9.997-24.137-9.997h-477.867c-9.053 0-17.735 3.597-24.136 9.997s-9.997 15.083-9.997 24.137v238.933h546.133v-238.933zM785.067 516.267h-546.133v102.4c0 9.053 3.596 17.735 9.997 24.136s15.084 9.997 24.136 9.997h68.267v-34.133c0-9.053 3.596-17.735 9.997-24.136s15.084-9.997 24.136-9.997c9.053 0 17.735 3.596 24.136 9.997s9.997 15.084 9.997 24.136v34.133h204.8v-34.133c0-9.053 3.597-17.735 9.997-24.136s15.083-9.997 24.137-9.997c9.054 0 17.737 3.596 24.137 9.997s9.997 15.084 9.997 24.136v34.133h68.267c9.054 0 17.737-3.596 24.137-9.997s9.997-15.084 9.997-24.136v-102.4z" />
<glyph unicode="&#xe91f;" glyph-name="descount" d="M901.12 503.040l-358.827 359.252c-3.985 3.954-8.713 7.083-13.914 9.206-5.197 2.124-10.765 3.2-16.38 3.167h-383.999c-11.316 0-22.168-4.495-30.17-12.497s-12.497-18.854-12.497-30.17v-383.999c-0.032-5.615 1.044-11.183 3.167-16.38 2.123-5.201 5.252-9.929 9.206-13.914l359.252-358.827c24-23.97 56.533-37.436 90.453-37.436s66.453 13.466 90.453 37.436l263.253 261.12c23.97 24 37.436 56.533 37.436 90.453s-13.466 66.453-37.436 90.453v2.133zM840.96 382.72l-263.68-263.253c-7.991-7.949-18.807-12.407-30.080-12.407s-22.084 4.459-30.080 12.407l-346.452 346.027v323.839h323.839l346.453-346.452c3.955-3.989 7.083-8.717 9.207-13.914s3.2-10.765 3.166-16.38c-0.047-11.196-4.489-21.922-12.373-29.867z" />
<glyph unicode="&#xe920;" glyph-name="dinero-exterior" d="M446.293 704.004l23.040 25.173v-153.173c0-11.316 4.497-22.168 12.497-30.17s18.854-12.497 30.17-12.497c11.315 0 22.17 4.495 30.17 12.497s12.497 18.854 12.497 30.17v153.173l23.040-23.467c3.874-4.374 8.602-7.907 13.897-10.378s11.038-3.829 16.879-3.989c5.841-0.16 11.652 0.881 17.075 3.059 5.419 2.178 10.338 5.446 14.443 9.601 3.998 3.967 7.172 8.686 9.34 13.885s3.281 10.776 3.281 16.408c0 5.633-1.114 11.209-3.281 16.409s-5.342 9.918-9.34 13.885l-97.707 97.707c-4.058 3.884-8.841 6.929-14.080 8.96-10.389 4.268-22.037 4.268-32.427 0-5.239-2.031-10.022-5.076-14.080-8.96l-97.707-96c-8.261-8.26-12.902-19.464-12.902-31.147s4.641-22.886 12.902-31.147c8.261-8.26 19.465-12.901 31.147-12.901s22.886 4.641 31.147 12.901v0zM512 448.004c-25.314 0-50.065-7.505-71.113-21.572-21.050-14.063-37.456-34.057-47.144-57.442-9.688-23.39-12.223-49.126-7.284-73.958 4.939-24.828 17.13-47.637 35.031-65.536 17.9-17.903 40.709-30.093 65.537-35.034 24.832-4.937 50.569-2.402 73.958 7.287 23.386 9.685 43.379 26.091 57.442 47.142 14.067 21.047 21.572 45.798 21.572 71.113 0 33.95-13.487 66.505-37.491 90.509s-56.563 37.491-90.509 37.491zM512 277.338c-8.439 0-16.687 2.505-23.706 7.189-7.014 4.689-12.484 11.354-15.714 19.149s-4.075 16.375-2.428 24.653c1.647 8.277 5.709 15.881 11.678 21.845 5.965 5.969 13.568 10.031 21.845 11.678s16.858 0.802 24.653-2.428c7.795-3.23 14.46-8.7 19.149-15.714 4.689-7.019 7.189-15.266 7.189-23.706 0-11.315-4.497-22.17-12.497-30.17s-18.854-12.497-30.17-12.497zM213.333 320.004c0-8.439 2.502-16.687 7.191-23.706 4.688-7.014 11.352-12.484 19.148-15.714s16.375-4.075 24.652-2.428c8.276 1.647 15.879 5.709 21.846 11.678 5.967 5.965 10.031 13.568 11.677 21.845s0.801 16.858-2.428 24.653c-3.229 7.795-8.698 14.46-15.715 19.149s-15.266 7.189-23.704 7.189c-11.316 0-22.168-4.497-30.17-12.497s-12.497-18.854-12.497-30.17zM810.667 320.004c0 8.439-2.5 16.687-7.189 23.706-4.689 7.014-11.354 12.484-19.149 15.714s-16.375 4.075-24.653 2.428c-8.277-1.647-15.881-5.709-21.845-11.678-5.969-5.965-10.031-13.568-11.678-21.845s-0.802-16.858 2.428-24.653c3.23-7.795 8.7-14.46 15.714-19.149 7.019-4.685 15.266-7.189 23.706-7.189 11.315 0 22.17 4.497 30.17 12.497s12.497 18.854 12.497 30.17zM853.333 618.671h-170.667c-11.315 0-22.17-4.495-30.17-12.497s-12.497-18.854-12.497-30.17c0-11.316 4.497-22.168 12.497-30.17s18.854-12.497 30.17-12.497h170.667c11.315 0 22.17-4.497 30.17-12.497s12.497-18.854 12.497-30.17v-341.333c0-11.315-4.497-22.17-12.497-30.17s-18.854-12.497-30.17-12.497h-682.667c-11.316 0-22.168 4.497-30.17 12.497s-12.497 18.854-12.497 30.17v341.333c0 11.315 4.495 22.17 12.497 30.17s18.854 12.497 30.17 12.497h170.667c11.316 0 22.168 4.495 30.17 12.497s12.497 18.854 12.497 30.17c0 11.316-4.495 22.168-12.497 30.17s-18.854 12.497-30.17 12.497h-170.667c-33.948 0-66.505-13.486-90.51-37.49s-37.49-56.56-37.49-90.51v-341.333c0-33.946 13.486-66.505 37.49-90.509s56.562-37.491 90.51-37.491h682.667c33.946 0 66.505 13.487 90.509 37.491s37.491 56.563 37.491 90.509v341.333c0 33.95-13.487 66.505-37.491 90.51s-56.563 37.49-90.509 37.49z" />
<glyph unicode="&#xe921;" glyph-name="discount" d="M926.293 478.298l-100.267 97.705v143.36c0 11.316-4.497 22.168-12.497 30.17s-18.854 12.497-30.17 12.497h-141.227l-99.84 100.267c-3.968 3.999-8.687 7.173-13.884 9.339-5.201 2.166-10.778 3.281-16.41 3.281s-11.209-1.115-16.41-3.281c-5.197-2.166-9.916-5.34-13.884-9.339l-97.707-100.267h-143.36c-11.316 0-22.168-4.495-30.17-12.497s-12.497-18.854-12.497-30.17v-143.36l-100.267-97.705c-3.999-3.968-7.173-8.687-9.339-13.888-2.166-5.197-3.281-10.773-3.281-16.405 0-5.636 1.115-11.213 3.281-16.41 2.166-5.201 5.34-9.92 9.339-13.884l100.267-99.84v-141.227c0-11.319 4.495-22.17 12.497-30.17 8.002-8.004 18.854-12.497 30.17-12.497h143.36l99.84-100.267c3.968-4.002 8.687-7.177 13.884-9.34 5.201-2.167 10.778-3.281 16.41-3.281s11.209 1.114 16.41 3.281c5.197 2.163 9.916 5.338 13.884 9.34l99.84 100.267h141.227c11.315 0 22.17 4.493 30.17 12.497 8 8 12.497 18.85 12.497 30.17v141.227l100.267 99.84c3.861 4.105 6.874 8.934 8.858 14.208 1.984 5.278 2.906 10.897 2.709 16.529-0.201 5.632-1.515 11.17-3.866 16.294s-5.692 9.728-9.835 13.555zM753.493 365.658c-4.032-3.955-7.241-8.666-9.438-13.867-2.197-5.197-3.341-10.782-3.362-16.427v-116.053h-116.053c-5.645-0.026-11.23-1.169-16.431-3.366-5.197-2.197-9.911-5.406-13.862-9.434l-82.347-82.347-82.347 82.347c-3.951 4.028-8.664 7.236-13.864 9.434s-10.784 3.341-16.43 3.366h-116.053v116.053c-0.023 5.645-1.167 11.23-3.364 16.427-2.197 5.201-5.404 9.911-9.436 13.867l-82.347 82.347 82.347 82.347c4.032 3.95 7.239 8.662 9.436 13.862s3.341 10.784 3.364 16.429v116.053h116.053c5.645 0.023 11.229 1.167 16.43 3.364s9.912 5.404 13.864 9.436l82.347 82.347 82.347-82.347c3.951-4.032 8.666-7.239 13.862-9.436 5.201-2.197 10.786-3.341 16.431-3.364h116.053v-116.053c0.021-5.645 1.165-11.229 3.362-16.429s5.406-9.912 9.438-13.862l82.347-82.347-82.347-82.347z" />
<glyph unicode="&#xe922;" glyph-name="document-add" d="M341.333 618.667c-11.316 0-22.168-4.495-30.17-12.497s-12.497-18.854-12.497-30.17c0-11.316 4.495-22.168 12.497-30.17s18.854-12.497 30.17-12.497h42.667c11.316 0 22.168 4.495 30.17 12.497s12.497 18.854 12.497 30.17c0 11.316-4.495 22.168-12.497 30.17s-18.854 12.497-30.17 12.497h-42.667zM554.667 106.667h-298.667c-11.316 0-22.168 4.497-30.17 12.497s-12.497 18.854-12.497 30.17v597.333c0 11.316 4.495 22.168 12.497 30.17s18.854 12.497 30.17 12.497h213.333v-128c0-33.948 13.487-66.505 37.491-90.51s56.563-37.49 90.509-37.49h128v-85.333c0-11.315 4.497-22.17 12.497-30.17s18.854-12.497 30.17-12.497c11.315 0 22.17 4.497 30.17 12.497s12.497 18.854 12.497 30.17v128c0 0 0 0 0 2.56-0.444 3.92-1.301 7.781-2.56 11.52v3.84c-2.052 4.387-4.787 8.419-8.107 11.947l-256 256c-3.529 3.319-7.561 6.055-11.947 8.107-1.412 0.247-2.854 0.247-4.267 0-4.147 2.219-8.606 3.801-13.227 4.693h-258.56c-33.948 0-66.505-13.486-90.51-37.49s-37.49-56.562-37.49-90.51v-597.333c0-33.946 13.486-66.505 37.49-90.509s56.562-37.491 90.51-37.491h298.667c11.315 0 22.17 4.497 30.17 12.497s12.497 18.854 12.497 30.17c0 11.315-4.497 22.17-12.497 30.17s-18.854 12.497-30.17 12.497zM554.667 729.173l110.507-110.507h-67.84c-11.315 0-22.17 4.495-30.17 12.497s-12.497 18.854-12.497 30.17v67.84zM597.333 448h-256c-11.316 0-22.168-4.497-30.17-12.497s-12.497-18.854-12.497-30.17c0-11.315 4.495-22.17 12.497-30.17s18.854-12.497 30.17-12.497h256c11.315 0 22.17 4.497 30.17 12.497s12.497 18.854 12.497 30.17c0 11.315-4.497 22.17-12.497 30.17s-18.854 12.497-30.17 12.497zM883.627 179.627c-3.968 3.998-8.687 7.172-13.884 9.34-5.201 2.167-10.778 3.281-16.41 3.281s-11.209-1.114-16.41-3.281c-5.197-2.167-9.916-5.342-13.884-9.34l-12.373-12.8v110.507c0 11.315-4.497 22.17-12.497 30.17s-18.854 12.497-30.17 12.497c-11.315 0-22.17-4.497-30.17-12.497s-12.497-18.854-12.497-30.17v-110.507l-12.373 12.8c-8.034 8.034-18.931 12.548-30.293 12.548s-22.259-4.514-30.293-12.548c-8.034-8.034-12.548-18.931-12.548-30.293s4.514-22.259 12.548-30.293l85.333-85.333c4.058-3.883 8.841-6.929 14.080-8.96 5.107-2.257 10.628-3.422 16.213-3.422s11.106 1.165 16.213 3.422c5.239 2.031 10.022 5.077 14.080 8.96l85.333 85.333c3.998 3.968 7.172 8.687 9.34 13.884 2.167 5.201 3.281 10.778 3.281 16.41s-1.114 11.209-3.281 16.41c-2.167 5.197-5.342 9.916-9.34 13.884zM512 192c11.315 0 22.17 4.497 30.17 12.497s12.497 18.854 12.497 30.17c0 11.315-4.497 22.17-12.497 30.17s-18.854 12.497-30.17 12.497h-170.667c-11.316 0-22.168-4.497-30.17-12.497s-12.497-18.854-12.497-30.17c0-11.315 4.495-22.17 12.497-30.17s18.854-12.497 30.17-12.497h170.667z" />
<glyph unicode="&#xe923;" glyph-name="dolar" d="M473.212 564.364h155.153c10.287 0 20.151 4.087 27.426 11.361s11.362 17.14 11.362 27.427c0 10.287-4.087 20.153-11.362 27.427s-17.139 11.361-27.426 11.361h-77.577v38.788c0 10.287-4.087 20.153-11.362 27.427s-17.139 11.361-27.426 11.361c-10.287 0-20.151-4.087-27.426-11.361s-11.362-17.14-11.362-27.427v-38.788c-30.861 0-60.459-12.26-82.281-34.082s-34.082-51.42-34.082-82.281c0-30.861 12.26-60.459 34.082-82.283s51.42-34.082 82.281-34.082h77.577c10.287 0 20.151-4.087 27.426-11.362 7.275-7.27 11.362-17.139 11.362-27.426s-4.087-20.151-11.362-27.426c-7.275-7.275-17.139-11.362-27.426-11.362h-155.152c-10.287 0-20.153-4.087-27.427-11.358-7.274-7.275-11.361-17.143-11.361-27.43s4.087-20.151 11.361-27.426c7.274-7.275 17.14-11.362 27.427-11.362h77.575v-38.784c0-10.291 4.087-20.156 11.362-27.43s17.139-11.358 27.426-11.358c10.287 0 20.151 4.083 27.426 11.358s11.362 17.139 11.362 27.43v38.784c30.861 0 60.459 12.262 82.283 34.082 21.82 21.824 34.082 51.422 34.082 82.283s-12.262 60.459-34.082 82.283c-21.824 21.824-51.422 34.082-82.283 34.082h-77.577c-10.287 0-20.151 4.087-27.426 11.362-7.275 7.27-11.362 17.139-11.362 27.426s4.087 20.152 11.362 27.427c7.275 7.274 17.139 11.36 27.426 11.36zM512 874.667c-84.386 0-166.878-25.024-237.043-71.906s-124.852-113.519-157.145-191.482c-32.294-77.962-40.743-163.752-24.28-246.517s57.099-158.788 116.77-218.462c59.67-59.669 135.695-100.305 218.46-116.77 82.765-16.461 168.555-8.013 246.515 24.282 77.965 32.294 144.602 86.98 191.484 157.146s71.906 152.657 71.906 237.043c0 113.159-44.954 221.683-124.966 301.699-80.017 80.015-188.54 124.968-301.7 124.968zM512 98.91c-69.043 0-136.537 20.471-193.944 58.833-57.408 38.357-102.152 92.877-128.573 156.668-26.422 63.787-33.335 133.978-19.865 201.694s46.717 129.919 95.538 178.74c48.821 48.821 111.023 82.069 178.74 95.539s137.907 6.557 201.694-19.866c63.791-26.422 118.31-71.165 156.668-128.573 38.362-57.408 58.833-124.901 58.833-193.944 0-92.587-36.779-181.376-102.246-246.844s-154.257-102.246-246.844-102.246z" />
<glyph unicode="&#xe924;" glyph-name="dollar" d="M597.333 490.667h-42.667v170.667h85.333c11.315 0 22.17-4.495 30.17-12.497s12.497-18.854 12.497-30.17c0-11.316 4.497-22.168 12.497-30.17s18.854-12.497 30.17-12.497c11.315 0 22.17 4.495 30.17 12.497s12.497 18.854 12.497 30.17c0 33.948-13.487 66.505-37.491 90.51s-56.563 37.49-90.509 37.49h-85.333v85.333c0 11.316-4.497 22.168-12.497 30.17s-18.854 12.497-30.17 12.497c-11.315 0-22.17-4.495-30.17-12.497s-12.497-18.854-12.497-30.17v-85.333h-42.667c-45.264 0-88.673-17.981-120.68-49.987s-49.987-75.416-49.987-120.68c0-45.265 17.981-88.674 49.987-120.678 32.006-32.009 75.416-49.988 120.68-49.988h42.667v-170.667h-85.333c-11.316 0-22.168 4.497-30.17 12.497s-12.497 18.854-12.497 30.17c0 11.315-4.495 22.17-12.497 30.17s-18.854 12.497-30.17 12.497c-11.316 0-22.168-4.497-30.17-12.497s-12.497-18.854-12.497-30.17c0-33.946 13.486-66.505 37.49-90.509s56.562-37.491 90.51-37.491h85.333v-85.333c0-11.315 4.497-22.17 12.497-30.17s18.854-12.497 30.17-12.497c11.315 0 22.17 4.497 30.17 12.497s12.497 18.854 12.497 30.17v85.333h42.667c45.265 0 88.674 17.98 120.678 49.988 32.009 32.004 49.988 75.413 49.988 120.678s-17.98 88.674-49.988 120.678c-32.004 32.009-75.413 49.988-120.678 49.988v0zM469.333 490.667h-42.667c-22.632 0-44.337 8.99-60.34 24.994s-24.994 37.708-24.994 60.339c0 22.632 8.99 44.337 24.994 60.34s37.708 24.994 60.34 24.994h42.667v-170.667zM597.333 234.667h-42.667v170.667h42.667c22.63 0 44.335-8.99 60.339-24.994s24.994-37.709 24.994-60.339c0-22.63-8.99-44.335-24.994-60.339s-37.709-24.994-60.339-24.994z" />
<glyph unicode="&#xe925;" glyph-name="down-arrow" d="M755.627 478.293c-3.968 3.998-8.687 7.172-13.884 9.34-5.201 2.167-10.778 3.281-16.41 3.281s-11.209-1.114-16.41-3.281c-5.197-2.167-9.916-5.342-13.884-9.34l-140.373-140.8v323.84c0 11.316-4.497 22.168-12.497 30.17s-18.854 12.497-30.17 12.497c-11.315 0-22.17-4.495-30.17-12.497s-12.497-18.854-12.497-30.17v-323.84l-140.373 140.8c-8.034 8.034-18.931 12.548-30.293 12.548s-22.259-4.514-30.293-12.548c-8.034-8.034-12.548-18.931-12.548-30.293s4.514-22.259 12.548-30.293l213.333-213.333c4.058-3.883 8.845-6.929 14.080-8.96 5.107-2.257 10.628-3.422 16.213-3.422s11.106 1.165 16.213 3.422c5.239 2.031 10.022 5.077 14.080 8.96l213.333 213.333c3.998 3.968 7.172 8.687 9.34 13.884 2.167 5.201 3.281 10.778 3.281 16.41s-1.114 11.209-3.281 16.41c-2.167 5.197-5.342 9.916-9.34 13.884z" />
<glyph unicode="&#xe926;" glyph-name="download" d="M707.84 576h-67.84v213.333c0 23.467-19.2 42.667-42.667 42.667h-170.667c-23.467 0-42.667-19.2-42.667-42.667v-213.333h-67.84c-37.973 0-57.173-46.080-30.293-72.96l195.84-195.84c16.64-16.64 43.52-16.64 60.16 0l195.84 195.84c26.88 26.88 8.107 72.96-29.867 72.96zM213.333 149.333c0-23.467 19.2-42.667 42.667-42.667h512c23.467 0 42.667 19.2 42.667 42.667s-19.2 42.667-42.667 42.667h-512c-23.467 0-42.667-19.2-42.667-42.667z" />
<glyph unicode="&#xe927;" glyph-name="locat-1" d="M512 874.667c-90.527 0-177.347-35.962-241.359-99.974s-99.974-150.832-99.974-241.359c0-230.4 300.8-490.667 313.6-501.76 7.727-6.609 17.562-10.244 27.733-10.244s20.006 3.635 27.733 10.244c14.933 11.093 313.6 271.36 313.6 501.76 0 90.527-35.964 177.347-99.972 241.359-64.013 64.013-150.835 99.974-241.361 99.974v0zM512 121.6c-90.88 85.333-256 269.227-256 411.733 0 67.895 26.971 133.010 74.981 181.019s113.124 74.981 181.019 74.981c67.895 0 133.009-26.971 181.018-74.981 48.013-48.009 74.982-113.124 74.982-181.019 0-142.507-165.12-326.827-256-411.733zM512 704c-33.754 0-66.752-10.010-94.817-28.762s-49.941-45.408-62.858-76.593c-12.917-31.185-16.297-65.499-9.712-98.608 6.585-33.105 22.839-63.514 46.708-87.381s54.278-40.124 87.383-46.707c33.109-6.588 67.422-3.209 98.607 9.711 31.185 12.915 57.843 34.79 76.595 62.857s28.762 61.065 28.762 94.818c0 45.264-17.98 88.673-49.988 120.68-32.004 32.006-75.413 49.987-120.678 49.987zM512 448c-16.879 0-33.374 5.005-47.407 14.383-14.033 9.374-24.973 22.703-31.433 38.293-6.455 15.595-8.147 32.752-4.855 49.305 3.294 16.553 11.422 31.758 23.356 43.692s27.14 20.061 43.691 23.354c16.555 3.293 33.711 1.603 49.306-4.856 15.59-6.459 28.919-17.396 38.293-31.429 9.378-14.033 14.383-30.531 14.383-47.409 0-22.63-8.99-44.335-24.994-60.339s-37.709-24.994-60.339-24.994z" />
<glyph unicode="&#xe928;" glyph-name="encuentra-edn" d="M926.293 94.276l-158.293 157.013c61.444 76.612 91.2 173.854 83.149 271.731s-53.295 188.95-126.434 254.492c-73.135 65.542-168.606 100.571-266.778 97.885-98.169-2.686-191.58-42.884-261.023-112.327s-109.641-162.854-112.327-261.025c-2.686-98.172 32.343-193.643 97.885-266.778 65.542-73.139 156.615-118.383 254.491-126.434s195.119 21.705 271.731 83.149l157.013-157.013c3.968-3.998 8.687-7.172 13.884-9.34 5.201-2.167 10.778-3.281 16.41-3.281s11.209 1.114 16.41 3.281c5.201 2.167 9.92 5.342 13.884 9.34 7.693 7.957 11.989 18.59 11.989 29.653s-4.297 21.696-11.989 29.653v0zM469.333 191.983c-59.069 0-116.814 17.515-165.929 50.334s-87.396 79.462-110.001 134.037c-22.605 54.575-28.52 114.628-16.996 172.563s39.969 111.153 81.739 152.922 94.987 70.215 152.922 81.739c57.937 11.524 117.987 5.61 172.561-16.996s101.218-60.886 134.037-110.001c32.819-49.116 50.334-106.86 50.334-165.931 0-79.211-31.467-155.179-87.475-211.187-56.013-56.013-131.981-87.479-211.191-87.479v0zM575.59 453.965c14.289 19.674 22.861 42.91 24.768 67.149 1.903 24.24-2.927 48.534-13.969 70.196-11.038 21.663-27.853 39.852-48.58 52.555-20.732 12.703-44.574 19.427-68.885 19.427-24.316 0-48.154-6.723-68.885-19.427s-37.545-30.892-48.584-52.555c-11.039-21.663-15.872-45.956-13.967-70.196 1.906-24.239 10.478-47.475 24.768-67.149-18.126-11.55-34.263-25.958-47.787-42.667-3.53-4.565-6.126-9.783-7.639-15.351-1.514-5.572-1.916-11.383-1.183-17.109s2.586-11.247 5.455-16.256c2.868-5.009 6.695-9.404 11.261-12.937 4.567-3.529 9.783-6.123 15.354-7.637s11.383-1.916 17.108-1.182c5.725 0.73 11.249 2.586 16.258 5.453s9.404 6.694 12.934 11.26c10.42 13.248 23.7 23.966 38.847 31.351 15.145 7.39 31.767 11.26 48.621 11.315 16.853-0.055 33.472-3.925 48.619-11.315 15.147-7.386 28.429-18.103 38.848-31.351 4.015-4.949 9.088-8.934 14.848-11.669 5.76-2.731 12.058-4.139 18.432-4.117 7.996 0.038 15.825 2.321 22.588 6.592s12.19 10.359 15.659 17.566c3.469 7.206 4.843 15.245 3.964 23.194-0.875 7.949-3.972 15.492-8.93 21.769-14.131 17.037-31.002 31.603-49.92 43.093zM469.35 485.111c-9.126 0.009-18.044 2.697-25.651 7.735s-13.564 12.203-17.129 20.604c-3.564 8.397-4.58 17.66-2.919 26.633s5.921 17.257 12.257 23.824 14.46 11.125 23.369 13.108c8.905 1.982 18.197 1.301 26.718-1.958 8.525-3.26 15.898-8.954 21.21-16.374 5.308-7.42 8.316-16.239 8.653-25.358 0.23-6.246-0.806-12.48-3.038-18.321-2.236-5.841-5.623-11.17-9.967-15.671-4.339-4.501-9.545-8.081-15.3-10.522-5.76-2.445-11.947-3.703-18.202-3.699z" />
<glyph unicode="&#xe929;" glyph-name="enlaces" d="M203.094 508.143c11.316-1.472 22.752 1.613 31.794 8.576 9.042 6.959 14.948 17.228 16.419 28.544s-1.614 22.752-8.575 31.794c-6.961 9.042-17.23 14.948-28.545 16.419l-75.093 18.773c-5.475 1.678-11.231 2.237-16.927 1.644s-11.213-2.327-16.224-5.098c-5.011-2.771-9.414-6.522-12.945-11.030s-6.118-9.681-7.608-15.209c-1.489-5.529-1.851-11.302-1.063-16.973s2.71-11.127 5.651-16.040c2.941-4.913 6.841-9.184 11.467-12.559s9.885-5.785 15.462-7.082l75.093-20.053c3.574-1.195 7.325-1.771 11.093-1.707v0zM367.788 746.65c2.5-9.308 8.079-17.496 15.826-23.229s17.208-8.675 26.841-8.344c3.674-0.59 7.419-0.59 11.093 0 10.828 2.996 20.040 10.142 25.633 19.888 5.589 9.746 7.113 21.304 4.233 32.165l-20.053 75.093c-1.297 5.577-3.708 10.835-7.081 15.461s-7.645 8.527-12.559 11.467c-4.913 2.941-10.368 4.863-16.040 5.651s-11.444 0.427-16.973-1.063c-5.529-1.489-10.702-4.077-15.21-7.608s-8.259-7.933-11.030-12.944c-2.771-5.011-4.504-10.529-5.098-16.224s-0.034-11.452 1.644-16.926l18.773-73.387zM573.867 319.983c-3.985 4.194-8.785 7.535-14.101 9.818-5.316 2.287-11.042 3.46-16.832 3.46-5.786 0-11.511-1.173-16.832-3.46-5.316-2.283-10.116-5.623-14.101-9.818l-149.332-151.893c-17.558-16.845-40.948-26.253-65.28-26.253s-47.722 9.408-65.28 26.253c-8.643 8.533-15.506 18.697-20.19 29.905-4.684 11.204-7.096 23.228-7.096 35.375s2.412 24.171 7.096 35.375c4.684 11.209 11.546 21.372 20.19 29.905l151.893 149.333c4.466 3.823 8.094 8.533 10.655 13.824 2.561 5.295 4 11.059 4.227 16.934 0.227 5.879-0.763 11.738-2.909 17.212s-5.399 10.449-9.556 14.605c-4.158 4.16-9.131 7.415-14.606 9.557-5.475 2.146-11.335 3.136-17.211 2.91s-11.642-1.668-16.935-4.228c-5.294-2.56-10.001-6.187-13.825-10.654l-153.173-148.907c-16.585-16.585-29.741-36.275-38.717-57.946-8.976-21.666-13.596-44.894-13.596-68.348s4.62-46.682 13.596-68.348c8.976-21.67 22.132-41.361 38.717-57.946s36.274-29.743 57.944-38.716c21.669-8.977 44.894-13.598 68.349-13.598s46.68 4.621 68.349 13.598c21.67 8.973 41.359 22.131 57.944 38.716l150.612 150.613c4.331 3.994 7.787 8.845 10.15 14.242s3.584 11.226 3.584 17.118c0 5.892-1.22 11.721-3.584 17.118s-5.82 10.249-10.15 14.242zM221.014 678.81c7.947-7.883 18.673-12.326 29.867-12.373 5.615-0.032 11.182 1.044 16.38 3.167s9.927 5.252 13.914 9.206c7.947 7.994 12.407 18.808 12.407 30.080s-4.46 22.086-12.407 30.080l-55.040 55.040c-8.162 6.99-18.662 10.642-29.4 10.228s-20.924-4.866-28.523-12.465c-7.599-7.599-12.050-17.785-12.465-28.523s3.238-21.237 10.228-29.399l55.040-55.040zM907.093 366.063l-75.093 20.053c-5.564 1.924-11.469 2.675-17.335 2.206-5.871-0.469-11.58-2.146-16.768-4.932-5.188-2.782-9.745-6.609-13.385-11.238-3.635-4.629-6.276-9.963-7.753-15.659-1.476-5.7-1.758-11.644-0.823-17.459 0.93-5.815 3.055-11.371 6.242-16.324 3.183-4.949 7.36-9.19 12.262-12.45s10.428-5.47 16.226-6.49l75.093-20.053h11.093c11.315-1.472 22.754 1.613 31.795 8.576 9.041 6.959 14.946 17.229 16.418 28.544s-1.613 22.754-8.576 31.795c-6.959 9.041-17.229 14.946-28.544 16.418l-0.853-2.987zM656.213 149.316c-1.481 5.41-4.015 10.475-7.454 14.903s-7.718 8.137-12.595 10.91c-4.873 2.773-10.244 4.561-15.812 5.257-5.564 0.695-11.213 0.286-16.619-1.203-10.829-2.995-20.041-10.142-25.63-19.887-5.594-9.749-7.117-21.303-4.237-32.166l20.053-75.093c2.5-9.31 8.081-17.498 15.825-23.228 7.748-5.734 17.212-8.674 26.842-8.346 3.686-0.418 7.407-0.418 11.093 0 5.449 1.434 10.556 3.934 15.036 7.356 4.476 3.422 8.23 7.693 11.046 12.574 2.816 4.877 4.638 10.266 5.363 15.855 0.721 5.585 0.329 11.26-1.152 16.695l-21.76 76.373zM802.987 216.303c-8.162 6.989-18.662 10.641-29.397 10.227-10.739-0.414-20.928-4.864-28.523-12.463-7.599-7.599-12.053-17.788-12.467-28.527-0.414-10.735 3.238-21.235 10.227-29.397l55.040-55.040c7.996-7.949 18.807-12.407 30.080-12.407s22.089 4.459 30.080 12.407c7.949 7.996 12.407 18.807 12.407 30.080s-4.459 22.084-12.407 30.080l-55.040 55.040zM904.533 661.316c0.666 35.48-9.323 70.344-28.672 100.092s-47.168 53.012-79.872 66.791c-32.7 13.779-68.783 17.439-103.586 10.508s-66.726-24.135-91.657-49.391l-150.613-151.893c-4.032-4.062-7.228-8.879-9.399-14.176s-3.281-10.97-3.264-16.695c0.021-5.725 1.169-11.39 3.379-16.672s5.436-10.077 9.498-14.111c4.062-4.034 8.879-7.229 14.178-9.402 5.295-2.173 10.97-3.281 16.695-3.261 5.722 0.020 11.388 1.167 16.67 3.376s10.078 5.437 14.11 9.499l149.333 151.893c17.557 16.845 40.947 26.251 65.28 26.251s47.723-9.406 65.28-26.251c8.644-8.533 15.505-18.697 20.19-29.904s7.095-23.231 7.095-35.376c0-12.146-2.411-24.171-7.095-35.377s-11.546-21.37-20.19-29.903l-151.893-149.333c-7.945-7.996-12.407-18.807-12.407-30.080s4.463-22.084 12.407-30.080c7.996-7.949 18.807-12.407 30.080-12.407s22.089 4.459 30.080 12.407l153.173 148.907c32.657 33.265 51.029 77.971 51.2 124.587v0z" />
<glyph unicode="&#xe92a;" glyph-name="error" d="M512 490.667c-11.315 0-22.17-4.497-30.17-12.497s-12.497-18.854-12.497-30.17v-170.667c0-11.315 4.497-22.17 12.497-30.17s18.854-12.497 30.17-12.497c11.315 0 22.17 4.497 30.17 12.497s12.497 18.854 12.497 30.17v170.667c0 11.315-4.497 22.17-12.497 30.17s-18.854 12.497-30.17 12.497zM528.213 657.92c-10.389 4.268-22.037 4.268-32.427 0-5.235-2.031-10.022-5.076-14.080-8.96-3.767-4.147-6.801-8.909-8.96-14.080-2.389-5.064-3.558-10.616-3.413-16.213-0.034-5.615 1.045-11.182 3.166-16.38 2.125-5.198 5.252-9.926 9.207-13.913 4.147-3.769 8.909-6.799 14.080-8.96 6.464-2.656 13.483-3.683 20.437-2.991 6.95 0.691 13.628 3.080 19.443 6.956s10.59 9.122 13.901 15.275c3.315 6.153 5.065 13.026 5.099 20.014-0.158 11.297-4.578 22.117-12.373 30.293-4.058 3.884-8.841 6.929-14.080 8.96zM512 874.667c-84.386 0-166.878-25.024-237.043-71.906s-124.852-113.519-157.145-191.482c-32.294-77.962-40.743-163.752-24.28-246.516s57.099-158.788 116.77-218.462c59.67-59.669 135.695-100.305 218.46-116.77 82.765-16.461 168.555-8.013 246.515 24.282 77.965 32.294 144.602 86.98 191.484 157.146s71.906 152.657 71.906 237.043c0 56.030-11.038 111.513-32.478 163.278s-52.868 98.801-92.489 138.421c-39.62 39.619-86.656 71.048-138.423 92.49-51.763 21.442-107.247 32.478-163.277 32.478v0zM512 106.667c-67.507 0-133.502 20.019-189.635 57.523-56.132 37.508-99.881 90.816-125.716 153.186s-32.594 131.004-19.424 197.214c13.17 66.213 45.679 127.033 93.416 174.769s108.556 80.245 174.769 93.416c66.21 13.17 134.844 6.411 197.214-19.424s115.678-69.584 153.186-125.716c37.504-56.132 57.523-122.123 57.523-189.635 0-90.526-35.959-177.348-99.972-241.361-64.013-64.009-150.835-99.972-241.361-99.972v0z" />
<glyph unicode="&#xe92b;" glyph-name="facebook" d="M891.733 874.667h-759.467c-12.448 0-24.385-4.945-33.187-13.746s-13.746-20.739-13.746-33.187v-759.467c0-6.165 1.214-12.267 3.572-17.963 2.359-5.692 5.816-10.867 10.174-15.223 4.358-4.361 9.532-7.817 15.226-10.176 5.694-2.355 11.797-3.571 17.961-3.571h408.747v330.667h-110.933v128h110.933v96c-2.3 22.538 0.363 45.306 7.795 66.708s19.46 40.917 35.234 57.179c15.774 16.262 34.914 28.876 56.077 36.957 21.167 8.081 43.844 11.434 66.441 9.824 33.207 0.204 66.402-1.505 99.413-5.12v-115.2h-67.84c-53.76 0-64-25.6-64-62.72v-82.347h128l-16.64-128h-111.36v-331.947h217.6c6.165 0 12.267 1.216 17.963 3.571 5.692 2.359 10.867 5.815 15.223 10.176 4.361 4.356 7.817 9.532 10.176 15.223 2.355 5.696 3.571 11.797 3.571 17.963v759.467c0 6.163-1.216 12.266-3.571 17.961-2.359 5.694-5.815 10.868-10.176 15.226-4.356 4.358-9.532 7.815-15.223 10.174-5.696 2.359-11.797 3.572-17.963 3.572v0z" />
<glyph unicode="&#xe92c;" glyph-name="gift" d="M768 661.321h-14.933c9.737 19.935 14.844 41.814 14.933 64 0.128 29.725-8.64 58.808-25.182 83.506s-40.094 43.88-67.631 55.078c-27.533 11.198-57.788 13.898-86.874 7.754-29.082-6.144-55.659-20.852-76.314-42.231-20.655 21.379-47.232 36.087-76.314 42.231-29.084 6.144-59.34 3.444-86.876-7.754s-51.089-30.38-67.629-55.078c-16.541-24.698-25.311-53.781-25.181-83.506 0.091-22.186 5.196-44.065 14.933-64h-14.933c-33.948 0-66.505-13.486-90.51-37.49s-37.49-56.562-37.49-90.511v-85.333c0-11.315 4.495-22.17 12.497-30.17s18.854-12.497 30.17-12.497h42.667v-256c0-33.946 13.486-66.505 37.49-90.509s56.562-37.491 90.51-37.491h341.333c33.946 0 66.505 13.487 90.509 37.491s37.491 56.563 37.491 90.509v256h42.667c11.315 0 22.17 4.497 30.17 12.497s12.497 18.854 12.497 30.17v85.333c0 33.949-13.487 66.506-37.491 90.511s-56.563 37.49-90.509 37.49zM469.333 106.654h-128c-11.316 0-22.168 4.497-30.17 12.497s-12.497 18.854-12.497 30.17v256h170.667v-298.667zM469.333 490.654h-256v42.667c0 11.317 4.495 22.169 12.497 30.17s18.854 12.497 30.17 12.497h213.333v-85.334zM469.333 661.321h-64c-12.658 0-25.032 3.753-35.556 10.786s-18.728 17.028-23.572 28.722c-4.844 11.695-6.112 24.563-3.642 36.977s8.565 23.819 17.516 32.769c8.951 8.951 20.354 15.046 32.769 17.516s25.283 1.202 36.977-3.642c11.695-4.844 21.692-13.047 28.723-23.572s10.786-22.898 10.786-35.556v-64zM554.667 725.321c0 12.658 3.755 25.032 10.786 35.556s17.028 18.728 28.723 23.572c11.695 4.844 24.563 6.111 36.975 3.642 12.416-2.47 23.821-8.565 32.772-17.516 8.947-8.951 15.044-20.354 17.515-32.769s1.203-25.283-3.644-36.977c-4.843-11.695-13.047-21.69-23.569-28.722-10.526-7.032-22.899-10.786-35.558-10.786h-64v64zM725.333 149.321c0-11.315-4.497-22.17-12.497-30.17s-18.854-12.497-30.17-12.497h-128v298.667h170.667v-256zM810.667 490.654h-256v85.334h213.333c11.315 0 22.17-4.495 30.17-12.497s12.497-18.854 12.497-30.17v-42.667z" />
<glyph unicode="&#xe92d;" glyph-name="health" d="M597.333 490.667h-42.667v42.668c0 11.316-4.493 22.168-12.497 30.17-8 8.001-18.854 12.497-30.17 12.497s-22.165-4.495-30.17-12.497c-8-8.002-12.497-18.854-12.497-30.17v-42.668h-42.667c-11.315 0-22.167-4.493-30.169-12.497-8.001-8-12.497-18.854-12.497-30.17s4.495-22.165 12.497-30.17c8.002-8 18.854-12.497 30.169-12.497h42.667v-42.667c0-11.315 4.497-22.165 12.497-30.17 8.004-8 18.854-12.497 30.17-12.497s22.17 4.497 30.17 12.497c8.004 8.004 12.497 18.854 12.497 30.17v42.667h42.667c11.315 0 22.17 4.497 30.17 12.497 8.004 8.004 12.497 18.854 12.497 30.17s-4.493 22.17-12.497 30.17c-8 8.004-18.854 12.497-30.17 12.497zM860.16 746.668c-45.495 45.026-105.583 72.308-169.425 76.925s-127.236-13.738-178.735-51.751c-54.285 40.378-121.855 58.688-189.101 51.241s-129.172-40.096-173.31-91.372c-44.137-51.277-67.206-117.373-64.562-184.978s30.806-131.696 78.814-179.372l256-258.133c23.999-23.97 56.532-37.431 90.452-37.431s66.453 13.461 90.453 37.431l256 258.133c25.216 24.636 45.312 54.007 59.136 86.434s21.103 67.264 21.419 102.511c0.32 35.248-6.332 70.211-19.571 102.88s-32.802 62.4-57.57 87.483v0zM800 428.373l-256-256c-3.964-3.998-8.683-7.172-13.884-9.34-5.201-2.163-10.778-3.281-16.41-3.281s-11.209 1.118-16.405 3.281c-5.201 2.167-9.92 5.342-13.888 9.34l-255.999 256c-33.461 34.206-52.198 80.154-52.198 128.001 0 47.849 18.737 93.796 52.198 128 34.097 33.664 80.084 52.541 128 52.541s93.904-18.877 127.999-52.541c3.968-3.999 8.687-7.173 13.888-9.339 5.197-2.166 10.773-3.281 16.405-3.281s11.209 1.115 16.41 3.281c5.201 2.166 9.92 5.34 13.884 9.339 34.099 33.664 80.085 52.541 128 52.541 47.919 0 93.905-18.877 128-52.541 33.719-34.242 52.617-80.37 52.617-128.427s-18.897-94.184-52.617-128.428v0.853z" />
<glyph unicode="&#xe92e;" glyph-name="help" d="M481.707 307.627c-1.835-2.027-3.546-4.164-5.12-6.4-1.613-2.377-2.906-4.962-3.84-7.68-1.229-2.419-2.091-5.009-2.56-7.68-0.209-2.842-0.209-5.692 0-8.533-0.145-5.598 1.024-11.149 3.413-16.213 1.916-5.295 4.975-10.103 8.956-14.084s8.789-7.040 14.084-8.956c5.107-2.257 10.628-3.422 16.213-3.422s11.106 1.165 16.213 3.422c5.295 1.916 10.103 4.975 14.084 8.956s7.040 8.789 8.956 14.084c1.894 5.188 2.765 10.692 2.56 16.213 0.034 5.615-1.045 11.183-3.166 16.38-2.125 5.197-5.252 9.929-9.207 13.914-3.968 3.998-8.687 7.172-13.884 9.34-5.201 2.167-10.778 3.281-16.41 3.281s-11.209-1.114-16.41-3.281c-5.197-2.167-9.916-5.342-13.884-9.34zM512 874.667c-84.386 0-166.878-25.024-237.043-71.906s-124.852-113.519-157.145-191.482c-32.294-77.962-40.743-163.752-24.28-246.516s57.099-158.788 116.77-218.462c59.67-59.669 135.695-100.305 218.46-116.77 82.765-16.461 168.555-8.013 246.515 24.282 77.965 32.294 144.602 86.98 191.484 157.146s71.906 152.657 71.906 237.043c0 56.030-11.038 111.513-32.478 163.278s-52.868 98.801-92.489 138.421c-39.62 39.619-86.656 71.048-138.423 92.49-51.763 21.442-107.247 32.478-163.277 32.478v0zM512 106.667c-67.507 0-133.502 20.019-189.635 57.523-56.132 37.508-99.881 90.816-125.716 153.186s-32.594 131.004-19.424 197.214c13.17 66.213 45.679 127.033 93.416 174.769s108.556 80.245 174.769 93.416c66.21 13.17 134.844 6.411 197.214-19.424s115.678-69.584 153.186-125.716c37.504-56.132 57.523-122.123 57.523-189.635 0-90.526-35.959-177.348-99.972-241.361-64.013-64.009-150.835-99.972-241.361-99.972v0zM512 661.333c-22.481 0.015-44.574-5.893-64.047-17.128s-35.645-27.401-46.886-46.872c-3.087-4.856-5.16-10.287-6.094-15.965s-0.71-11.486 0.659-17.076c1.369-5.589 3.855-10.844 7.307-15.447s7.8-8.462 12.783-11.341c4.982-2.88 10.495-4.721 16.206-5.417 5.713-0.691 11.507-0.226 17.033 1.379 5.53 1.603 10.675 4.308 15.13 7.951 4.45 3.643 8.124 8.15 10.79 13.249 3.759 6.511 9.173 11.913 15.693 15.66 6.515 3.746 13.909 5.704 21.427 5.674 11.315 0 22.17-4.495 30.17-12.497s12.497-18.854 12.497-30.17c0-11.315-4.497-22.17-12.497-30.17s-18.854-12.497-30.17-12.497c-11.315 0-22.17-4.497-30.17-12.497s-12.497-18.854-12.497-30.17v-42.667c0-11.315 4.497-22.17 12.497-30.17s18.854-12.497 30.17-12.497c11.315 0 22.17 4.497 30.17 12.497s12.497 18.854 12.497 30.17v7.68c28.22 10.24 51.942 30.071 67.021 56.026 15.078 25.958 20.553 56.388 15.471 85.974s-20.403 56.442-43.281 75.877c-22.878 19.435-51.861 30.211-81.877 30.444v0z" />
<glyph unicode="&#xe92f;" glyph-name="home" d="M853.333 618.687l-256 224.427c-23.467 20.99-53.85 32.594-85.333 32.594-31.488 0-61.867-11.604-85.335-32.594l-256-224.427c-13.552-12.12-24.367-26.989-31.724-43.616s-11.087-34.63-10.943-52.81v-372.907c0-33.95 13.486-66.505 37.49-90.509s56.562-37.491 90.51-37.491h512.001c33.946 0 66.505 13.487 90.509 37.491s37.491 56.559 37.491 90.509v373.333c0.081 18.109-3.678 36.029-11.034 52.578-7.351 16.549-18.138 31.348-31.633 43.421v0zM597.333 106.688h-170.668v213.333c0 11.315 4.494 22.17 12.498 30.17 8 8 18.854 12.497 30.17 12.497h85.333c11.315 0 22.165-4.497 30.17-12.497 8-8 12.497-18.854 12.497-30.17v-213.333zM810.667 149.355c0-11.315-4.497-22.17-12.497-30.17-8.004-8.004-18.854-12.497-30.17-12.497h-85.333v213.333c0 33.946-13.487 66.505-37.491 90.509s-56.563 37.491-90.509 37.491h-85.333c-33.95 0-66.506-13.487-90.511-37.491s-37.49-56.563-37.49-90.509v-213.333h-85.333c-11.316 0-22.168 4.493-30.17 12.497-8.002 8-12.497 18.854-12.497 30.17v373.333c0.008 6.059 1.306 12.044 3.807 17.562s6.149 10.439 10.7 14.438l256.001 224c7.787 6.84 17.796 10.613 28.16 10.613s20.373-3.773 28.16-10.613l256-224c4.548-3.998 8.196-8.92 10.701-14.438 2.5-5.517 3.797-11.503 3.806-17.562v-373.333z" />
<glyph unicode="&#xe930;" d="M597.333 843.114l256-224.427c13.495-12.073 24.282-26.872 31.633-43.421 7.356-16.549 11.115-34.47 11.034-52.578v-373.333c0-33.95-13.487-66.505-37.491-90.509s-56.563-37.491-90.509-37.491h-512.001c-33.948 0-66.505 13.487-90.51 37.491s-37.49 56.559-37.49 90.509v372.907c-0.144 18.18 3.586 36.183 10.943 52.81s18.172 31.495 31.724 43.616l256 224.427c23.468 20.99 53.847 32.594 85.335 32.594 31.484 0 61.867-11.604 85.333-32.594zM798.17 119.185c8 8 12.497 18.854 12.497 30.17v373.333c-0.009 6.059-1.306 12.044-3.806 17.562-2.505 5.518-6.153 10.439-10.701 14.438l-256 224c-7.787 6.84-17.796 10.613-28.16 10.613s-20.373-3.773-28.16-10.613l-256.001-224c-4.551-3.998-8.199-8.92-10.7-14.438s-3.799-11.503-3.807-17.562v-373.333c0-11.315 4.495-22.17 12.497-30.17 8.001-8.004 18.854-12.497 30.17-12.497h512.001c11.315 0 22.165 4.493 30.17 12.497z" />
<glyph unicode="&#xe931;" d="M493.346 469.333h103.151c10.944 0 21.44 4.497 29.175 12.497 7.74 8 12.087 18.854 12.087 30.17s-4.348 22.168-12.087 30.17c-7.735 8.001-18.231 12.497-29.175 12.497h-41.259v21.333c0 11.316-4.348 22.168-12.083 30.17-7.74 8.001-18.236 12.497-29.175 12.497-10.944 0-21.44-4.495-29.175-12.497-7.74-8.002-12.087-18.854-12.087-30.17v-23.467c-25.067-5.264-47.351-19.972-62.522-41.271-15.172-21.295-22.15-47.663-19.578-73.98 2.571-26.321 14.507-50.714 33.49-68.442 18.982-17.732 43.661-27.533 69.239-27.507h41.263c5.47 0 10.718-2.249 14.588-6.246 3.866-4.002 6.042-9.429 6.042-15.087s-2.176-11.085-6.042-15.087c-3.87-3.998-9.118-6.246-14.588-6.246h-103.151c-10.943 0-21.438-4.497-29.176-12.497s-12.084-18.854-12.084-30.17c0-11.315 4.347-22.17 12.084-30.17s18.233-12.497 29.176-12.497h41.259v-21.333c0-11.315 4.348-22.17 12.087-30.17 7.735-8 18.231-12.497 29.175-12.497 10.94 0 21.436 4.497 29.175 12.497 7.735 8 12.083 18.854 12.083 30.17v23.467c25.067 5.265 47.351 19.972 62.524 41.271 15.172 21.295 22.148 47.663 19.575 73.98-2.569 26.321-14.507 50.714-33.489 68.442-18.982 17.732-43.661 27.533-69.239 27.507h-41.263c-5.47 0-10.718 2.249-14.588 6.246-3.866 4.002-6.042 9.429-6.042 15.087s2.176 11.085 6.042 15.087c3.87 3.998 9.118 6.246 14.588 6.246z" />
<glyph unicode="&#xe932;" d="M596.497 469.333h-103.151c-5.47 0-10.718-2.249-14.588-6.246-3.866-4.002-6.042-9.429-6.042-15.087s2.176-11.085 6.042-15.087c3.87-3.998 9.118-6.246 14.588-6.246h41.263c25.579 0.026 50.257-9.775 69.239-27.507 18.982-17.728 30.921-42.121 33.489-68.442 2.573-26.317-4.403-52.685-19.575-73.98-15.172-21.299-37.457-36.006-62.524-41.271v-23.467c0-11.315-4.348-22.17-12.083-30.17-7.74-8-18.236-12.497-29.175-12.497-10.944 0-21.44 4.497-29.175 12.497-7.74 8-12.087 18.854-12.087 30.17v21.333h-41.259c-10.943 0-21.438 4.497-29.176 12.497s-12.084 18.854-12.084 30.17c0 11.315 4.347 22.17 12.084 30.17s18.233 12.497 29.176 12.497h103.151c5.47 0 10.718 2.249 14.588 6.246 3.866 4.002 6.042 9.429 6.042 15.087s-2.176 11.085-6.042 15.087c-3.87 3.998-9.118 6.246-14.588 6.246h-41.263c-25.579-0.026-50.257 9.775-69.239 27.507-18.984 17.728-30.92 42.121-33.49 68.442-2.571 26.317 4.407 52.685 19.578 73.98 15.171 21.299 37.455 36.008 62.522 41.271v23.467c0 11.316 4.348 22.168 12.087 30.17 7.735 8.001 18.231 12.497 29.175 12.497 10.94 0 21.436-4.495 29.175-12.497 7.735-8.002 12.083-18.854 12.083-30.17v-21.333h41.259c10.944 0 21.44-4.495 29.175-12.497 7.74-8.002 12.087-18.855 12.087-30.17s-4.348-22.17-12.087-30.17c-7.735-8-18.231-12.497-29.175-12.497z" />
<glyph unicode="&#xe933;" glyph-name="instagram" d="M512 553.813c-20.928 0-41.387-6.206-58.786-17.833-17.399-11.629-30.964-28.154-38.973-47.486-8.009-19.337-10.104-40.614-6.022-61.137 4.083-20.527 14.161-39.381 28.96-54.178 14.797-14.801 33.651-24.879 54.178-28.958 20.523-4.083 41.801-1.988 61.137 6.020 19.332 8.009 35.857 21.572 47.484 38.972 11.631 17.399 17.835 37.858 17.835 58.786 0 13.897-2.735 27.657-8.055 40.495-5.316 12.834-13.111 24.499-22.938 34.325s-21.491 17.621-34.325 22.938c-12.838 5.318-26.598 8.055-40.495 8.055v0zM935.68 658.347c-0.226 32.949-6.293 65.597-17.92 96.427-8.563 22.56-21.815 43.047-38.878 60.109s-37.551 30.313-60.109 38.877c-30.831 11.628-63.479 17.696-96.427 17.92-55.040 2.987-71.253 2.987-210.347 2.987s-155.307 0-210.347-2.987c-32.949-0.224-65.597-6.292-96.427-17.92-22.56-8.564-43.047-21.815-60.109-38.877s-30.313-37.55-38.877-60.109c-11.628-30.83-17.696-63.478-17.92-96.427-2.987-55.040-2.987-71.253-2.987-210.347s0-155.307 2.987-210.347c0.459-33.067 6.518-65.813 17.92-96.853 8.526-22.455 21.766-42.825 38.827-59.733 16.989-17.165 37.521-30.417 60.16-38.827 30.83-11.627 63.478-17.694 96.427-17.92 55.040-2.987 71.253-2.987 210.347-2.987s155.307 0 210.347 2.987c32.947 0.226 65.596 6.293 96.427 17.92 22.639 8.41 43.17 21.662 60.16 38.827 17.062 16.909 30.302 37.278 38.827 59.733 11.618 30.98 17.681 63.765 17.92 96.853 2.987 55.040 2.987 71.253 2.987 210.347s0 155.307-2.987 210.347v0zM827.307 317.013c-1.37-26.33-6.989-52.267-16.64-76.8-8.282-20.467-20.595-39.057-36.207-54.673-15.616-15.612-34.206-27.925-54.673-36.207-24.768-9.114-50.846-14.157-77.227-14.933-33.707 0-42.667 0-130.56 0s-96.853 0-130.56 0c-26.38 0.777-52.459 5.82-77.227 14.933-21.158 7.863-40.265 20.407-55.893 36.693-15.459 15.305-27.399 33.796-34.987 54.187-9.149 24.742-14.054 50.85-14.507 77.227 0 33.707 0 42.667 0 130.56s0 96.853 0 130.56c0.453 26.375 5.357 52.485 14.507 77.227 7.863 21.158 20.406 40.265 36.693 55.893 15.374 15.376 33.846 27.303 54.187 34.987 24.768 9.113 50.847 14.156 77.227 14.933v0c33.707 0 42.667 0 130.56 0s96.853 0 130.56 0c26.381-0.777 52.459-5.82 77.227-14.933 21.158-7.863 40.265-20.406 55.893-36.693 15.458-15.307 27.401-33.798 34.987-54.187 9.114-24.768 14.157-50.847 14.933-77.227 0-33.707 0-42.667 0-130.56s2.987-96.853 1.707-130.56v-0.427zM759.040 634.453c-5.082 13.782-13.090 26.298-23.475 36.684s-22.903 18.396-36.685 23.476c-18.923 6.56-38.857 9.737-58.88 9.387-33.28 0-42.667 0-128 0s-94.72 0-128 0c-20.127-0.197-40.061-3.952-58.88-11.093-13.571-4.849-25.955-12.532-36.327-22.537s-18.497-22.103-23.833-35.49c-6.196-19.002-9.223-38.895-8.96-58.88 0-33.28 0-42.667 0-128s0-94.72 0-128c0.423-20.105 4.172-40 11.093-58.88 5.080-13.781 13.089-26.3 23.476-36.685s22.902-18.394 36.684-23.475c18.205-6.694 37.361-10.441 56.747-11.093v0c33.28 0 42.667 0 128 0s94.72 0 128 0c20.126 0.196 40.060 3.951 58.88 11.093 13.781 5.082 26.3 13.090 36.685 23.475s18.394 22.903 23.475 36.685c7.142 18.82 10.897 38.754 11.093 58.88 0 33.28 0 42.667 0 128s0 94.72 0 128c0.013 20.147-3.75 40.119-11.093 58.88v-0.427zM512 285.013c-21.385 0-42.556 4.22-62.306 12.416s-37.692 20.207-52.792 35.349c-15.101 15.138-27.066 33.109-35.21 52.881s-12.308 40.956-12.251 62.34v0c0 32.252 9.57 63.782 27.498 90.595s43.408 47.703 73.216 60.026c29.807 12.323 62.601 15.526 94.225 9.202 31.629-6.324 60.668-21.889 83.447-44.726 22.775-22.836 38.268-51.916 44.506-83.562 6.242-31.646 2.953-64.431-9.451-94.204-12.399-29.773-33.357-55.198-60.215-73.058-26.859-17.856-58.415-27.345-90.667-27.26v0zM682.667 578.987c-9.434 0.998-18.159 5.452-24.503 12.503s-9.856 16.2-9.856 25.684c0 9.484 3.511 18.633 9.856 25.684s15.070 11.504 24.503 12.503v0c9.434-0.998 18.159-5.452 24.503-12.503s9.856-16.2 9.856-25.684c0-9.484-3.511-18.633-9.856-25.684s-15.070-11.504-24.503-12.503z" />
<glyph unicode="&#xe934;" glyph-name="keyboard" d="M286.293 563.627c-3.966 3.999-8.685 7.173-13.885 9.339s-10.776 3.281-16.409 3.281c-5.632 0-11.209-1.115-16.409-3.281s-9.918-5.34-13.885-9.339c-3.884-4.058-6.929-8.843-8.96-14.080-3.267-7.77-4.16-16.333-2.566-24.61s5.605-15.898 11.526-21.897c4.147-3.767 8.909-6.801 14.080-8.96 5.064-2.389 10.616-3.558 16.213-3.413 6.988 0.034 13.861 1.783 20.014 5.099 6.153 3.311 11.398 8.085 15.275 13.901s6.265 12.493 6.956 19.447c0.692 6.952-0.336 13.969-2.991 20.433-2.031 5.237-5.076 10.022-8.96 14.080zM426.667 490.667c6.989 0.034 13.862 1.783 20.015 5.099 6.153 3.311 11.396 8.085 15.275 13.901 3.874 5.815 6.263 12.493 6.955 19.447 0.691 6.952-0.337 13.969-2.991 20.433-2.031 5.237-5.077 10.022-8.96 14.080-4.885 5.070-10.944 8.853-17.647 11.012-6.699 2.159-13.828 2.627-20.753 1.361-2.826-0.396-5.566-1.261-8.107-2.56l-7.68-3.84-6.4-5.12c-7.999-8.39-12.434-19.555-12.373-31.147 0-11.315 4.495-22.17 12.497-30.17s18.854-12.497 30.17-12.497zM272.213 401.92c-10.388 4.267-22.039 4.267-32.427 0-7.792-3.2-14.462-8.636-19.169-15.62-4.707-6.989-7.242-15.211-7.284-23.633 0.035-6.989 1.786-13.862 5.098-20.015s8.086-11.396 13.901-15.275c5.814-3.874 12.492-6.263 19.446-6.955s13.971 0.337 20.435 2.991c5.171 2.159 9.933 5.193 14.080 8.96 3.954 3.985 7.083 8.717 9.206 13.914s3.2 10.765 3.167 16.38c0.032 5.615-1.044 11.183-3.167 16.38s-5.252 9.929-9.206 13.914c-4.005 3.951-8.805 7.006-14.080 8.96v0zM597.333 405.333h-170.667c-11.316 0-22.168-4.497-30.17-12.497s-12.497-18.854-12.497-30.17c0-11.315 4.495-22.17 12.497-30.17s18.854-12.497 30.17-12.497h170.667c11.315 0 22.17 4.497 30.17 12.497s12.497 18.854 12.497 30.17c0 11.315-4.497 22.17-12.497 30.17s-18.854 12.497-30.17 12.497zM627.627 563.627c-3.968 3.999-8.687 7.173-13.884 9.339-5.201 2.166-10.778 3.281-16.41 3.281s-11.209-1.115-16.41-3.281c-5.197-2.166-9.916-5.34-13.884-9.339-3.883-4.058-6.929-8.843-8.96-14.080-2.487-5.84-3.639-12.162-3.375-18.505 0.269-6.34 1.946-12.544 4.915-18.155 2.965-5.611 7.147-10.492 12.241-14.281 5.090-3.793 10.965-6.396 17.19-7.629 6.229-1.233 12.651-1.062 18.803 0.503s11.878 4.484 16.759 8.542c4.881 4.058 8.794 9.152 11.456 14.916s4.002 12.045 3.93 18.394c0.145 5.597-1.024 11.15-3.413 16.213-2.031 5.237-5.077 10.022-8.96 14.080v0zM791.893 398.080c-2.377 1.613-4.962 2.906-7.68 3.84-10.389 4.267-22.037 4.267-32.427 0-5.171-2.159-9.933-5.193-14.080-8.96-7.795-8.175-12.215-18.995-12.373-30.293 0-11.315 4.497-22.17 12.497-30.17s18.854-12.497 30.17-12.497c11.315 0 22.17 4.497 30.17 12.497s12.497 18.854 12.497 30.17c-0.158 11.298-4.578 22.118-12.373 30.293l-6.4 5.12zM853.333 746.667h-682.667c-33.948 0-66.505-13.486-90.51-37.49s-37.49-56.562-37.49-90.51v-341.333c0-33.946 13.486-66.505 37.49-90.509s56.562-37.491 90.51-37.491h682.667c33.946 0 66.505 13.487 90.509 37.491s37.491 56.563 37.491 90.509v341.333c0 33.948-13.487 66.505-37.491 90.51s-56.563 37.49-90.509 37.49zM896 277.333c0-11.315-4.497-22.17-12.497-30.17s-18.854-12.497-30.17-12.497h-682.667c-11.316 0-22.168 4.497-30.17 12.497s-12.497 18.854-12.497 30.17v341.333c0 11.316 4.495 22.168 12.497 30.17s18.854 12.497 30.17 12.497h682.667c11.315 0 22.17-4.495 30.17-12.497s12.497-18.854 12.497-30.17v-341.333zM798.293 563.627c-5.969 6.017-13.594 10.121-21.901 11.788-8.311 1.667-16.926 0.822-24.755-2.428-7.825-3.25-14.507-8.757-19.191-15.819s-7.164-15.36-7.113-23.834c-0.073-6.349 1.267-12.629 3.93-18.394s6.575-10.859 11.456-14.916c4.881-4.058 10.607-6.976 16.759-8.542s12.574-1.737 18.803-0.503c6.225 1.233 12.1 3.836 17.19 7.629 5.094 3.789 9.276 8.67 12.241 14.281 2.97 5.611 4.646 11.814 4.915 18.155 0.265 6.342-0.887 12.664-3.375 18.505-2.031 5.237-5.077 10.022-8.96 14.080v0z" />
<glyph unicode="&#xe935;" glyph-name="left-arrow" d="M725.333 490.658h-323.839l140.799 140.374c8.034 8.035 12.548 18.931 12.548 30.293s-4.514 22.259-12.548 30.293c-8.034 8.035-18.931 12.548-30.293 12.548s-22.259-4.514-30.293-12.548l-213.332-213.334c-3.884-4.058-6.929-8.841-8.96-14.080-4.268-10.385-4.268-22.037 0-32.427 2.031-5.235 5.076-10.022 8.96-14.080l213.332-213.333c3.968-3.998 8.687-7.172 13.884-9.34 5.201-2.163 10.778-3.281 16.41-3.281s11.209 1.118 16.41 3.281c5.201 2.167 9.92 5.342 13.884 9.34 3.998 3.968 7.172 8.687 9.34 13.884 2.167 5.201 3.281 10.778 3.281 16.41s-1.114 11.209-3.281 16.41c-2.167 5.201-5.342 9.92-9.34 13.884l-140.799 140.373h323.839c11.315 0 22.17 4.497 30.17 12.497 8.004 8 12.497 18.854 12.497 30.17s-4.493 22.17-12.497 30.17c-8 8.004-18.854 12.497-30.17 12.497z" />
<glyph unicode="&#xe936;" glyph-name="like" d="M908.8 529.92c-11.989 14.392-26.991 25.978-43.947 33.94s-35.456 12.105-54.187 12.138h-194.56l23.893 61.013c9.937 26.714 13.248 55.441 9.647 83.715-3.605 28.275-14.012 55.253-30.332 78.622s-38.067 42.429-63.373 55.547c-25.301 13.118-53.414 19.902-81.916 19.77-8.209-0.017-16.235-2.401-23.121-6.866s-12.339-10.821-15.706-18.307l-121.6-273.493h-100.267c-33.948 0-66.505-13.486-90.51-37.49s-37.49-56.562-37.49-90.508v-298.667c0-33.95 13.486-66.509 37.49-90.513s56.562-37.487 90.51-37.487h543.147c29.943 0.009 58.935 10.517 81.933 29.692 22.997 19.179 38.545 45.811 43.934 75.268l54.187 298.667c3.354 18.458 2.603 37.427-2.189 55.565s-13.513 34.999-25.545 49.395zM298.667 106.667h-85.333c-11.316 0-22.168 4.493-30.17 12.493-8.001 8.004-12.497 18.854-12.497 30.174v298.667c0 11.315 4.495 22.165 12.497 30.17 8.002 8 18.854 12.497 30.17 12.497h85.333v-384zM853.333 440.32l-54.187-298.667c-1.818-9.941-7.104-18.914-14.916-25.318-7.812-6.409-17.647-9.835-27.75-9.668h-372.48v417.707l116.053 261.118c11.947-3.483 23.040-9.404 32.585-17.391 9.54-7.986 17.323-17.864 22.857-29.009s8.695-23.317 9.289-35.747c0.589-12.429-1.399-24.846-5.85-36.467l-22.613-61.014c-4.817-12.896-6.447-26.767-4.74-40.428 1.702-13.661 6.686-26.707 14.524-38.025 7.838-11.315 18.3-20.57 30.49-26.97s25.745-9.754 39.514-9.775h194.56c6.268 0.009 12.463-1.361 18.142-4.019 5.675-2.654 10.701-6.528 14.711-11.341 4.109-4.753 7.121-10.351 8.819-16.397 1.694-6.050 2.035-12.399 0.994-18.59z" />
<glyph unicode="&#xe937;" glyph-name="link" d="M516.685 303.356l-165.545-165.547c-20.044-19.345-46.811-30.153-74.667-30.153s-54.624 10.807-74.667 30.153c-9.83 9.792-17.63 21.427-22.953 34.24s-8.062 26.551-8.062 40.427c0 13.875 2.74 27.614 8.062 40.427s13.122 24.448 22.953 34.24l165.547 165.547c8.034 8.034 12.548 18.931 12.548 30.293s-4.514 22.259-12.548 30.293c-8.035 8.034-18.931 12.548-30.293 12.548s-22.259-4.514-30.293-12.548l-165.547-165.973c-33.35-36.301-51.387-84.083-50.344-133.363 1.043-49.284 21.086-96.26 55.943-131.119 34.857-34.854 81.832-54.899 131.115-55.94 49.284-1.045 97.065 16.994 133.366 50.342l165.972 165.547c8.034 8.034 12.548 18.931 12.548 30.293s-4.514 22.259-12.548 30.293c-8.034 8.034-18.931 12.548-30.293 12.548s-22.259-4.514-30.293-12.548v0zM882.765 818.769c-35.891 35.669-84.437 55.689-135.040 55.689-50.598 0-99.145-20.020-135.040-55.689l-165.973-165.547c-3.977-3.978-7.134-8.701-9.284-13.899-2.155-5.198-3.264-10.769-3.264-16.394s1.109-11.197 3.264-16.395c2.15-5.198 5.308-9.921 9.284-13.899 3.981-3.978 8.704-7.134 13.901-9.287s10.769-3.261 16.393-3.261c5.628 0 11.2 1.108 16.397 3.261s9.92 5.309 13.897 9.287l165.547 165.547c20.045 19.344 46.814 30.154 74.667 30.154 27.857 0 54.626-10.81 74.667-30.154 9.83-9.792 17.63-21.428 22.955-34.241 5.321-12.813 8.060-26.551 8.060-40.426s-2.739-27.613-8.060-40.426c-5.325-12.813-13.124-24.449-22.955-34.24l-165.547-165.547c-3.998-3.968-7.172-8.687-9.34-13.884-2.163-5.201-3.281-10.778-3.281-16.41s1.118-11.209 3.281-16.41c2.167-5.197 5.342-9.916 9.34-13.884 3.968-3.998 8.687-7.172 13.888-9.34 5.197-2.167 10.773-3.281 16.405-3.281s11.213 1.114 16.41 3.281c5.201 2.167 9.92 5.342 13.884 9.34l165.547 165.974c35.669 35.892 55.689 84.438 55.689 135.040s-20.019 99.148-55.689 135.040v0zM376.74 312.742c3.987-3.955 8.715-7.083 13.913-9.207 5.199-2.121 10.765-3.2 16.38-3.166 5.615-0.034 11.182 1.045 16.38 3.166 5.199 2.125 9.927 5.252 13.912 9.207l209.92 209.92c8.034 8.034 12.548 18.931 12.548 30.294s-4.514 22.259-12.548 30.293c-8.034 8.034-18.931 12.548-30.293 12.548s-22.259-4.514-30.293-12.548l-209.918-209.92c-3.999-3.968-7.174-8.687-9.339-13.884-2.166-5.201-3.281-10.778-3.281-16.41s1.115-11.209 3.281-16.41c2.166-5.197 5.34-9.916 9.339-13.884z" />
<glyph unicode="&#xe938;" glyph-name="link2" d="M341.333 448c0-11.315 4.495-22.17 12.497-30.17s18.854-12.497 30.17-12.497h256c11.315 0 22.17 4.497 30.17 12.497s12.497 18.854 12.497 30.17c0 11.315-4.497 22.17-12.497 30.17s-18.854 12.497-30.17 12.497h-256c-11.316 0-22.168-4.497-30.17-12.497s-12.497-18.854-12.497-30.17zM426.667 320h-128c-33.948 0-66.505 13.487-90.51 37.491s-37.49 56.563-37.49 90.509c0 33.946 13.486 66.505 37.49 90.51s56.562 37.49 90.51 37.49h128c11.315 0 22.17 4.495 30.17 12.497s12.497 18.854 12.497 30.17c0 11.316-4.497 22.168-12.497 30.17s-18.854 12.497-30.17 12.497h-128c-56.579 0-110.842-22.476-150.849-62.484s-62.484-94.269-62.484-150.849c0-56.58 22.476-110.844 62.484-150.848 40.008-40.009 94.27-62.485 150.849-62.485h128c11.315 0 22.17 4.497 30.17 12.497s12.497 18.854 12.497 30.17c0 11.315-4.497 22.17-12.497 30.17s-18.854 12.497-30.17 12.497zM725.333 661.333h-128c-11.315 0-22.17-4.495-30.17-12.497s-12.497-18.854-12.497-30.17c0-11.316 4.497-22.168 12.497-30.17s18.854-12.497 30.17-12.497h128c33.946 0 66.505-13.486 90.509-37.49s37.491-56.564 37.491-90.51c0-33.946-13.487-66.505-37.491-90.509s-56.563-37.491-90.509-37.491h-128c-11.315 0-22.17-4.497-30.17-12.497s-12.497-18.854-12.497-30.17c0-11.315 4.497-22.17 12.497-30.17s18.854-12.497 30.17-12.497h128c56.58 0 110.844 22.477 150.848 62.485 40.009 40.004 62.485 94.268 62.485 150.848s-22.477 110.842-62.485 150.849c-40.004 40.008-94.268 62.484-150.848 62.484v0z" />
</font>
</defs>
</svg>
